<?xml version="1.0" encoding="UTF-8" standalone="no"?>
<!-- Created with Inkscape (http://www.inkscape.org/) -->

<svg
   xmlns:dc="http://purl.org/dc/elements/1.1/"
   xmlns:cc="http://creativecommons.org/ns#"
   xmlns:rdf="http://www.w3.org/1999/02/22-rdf-syntax-ns#"
   xmlns:svg="http://www.w3.org/2000/svg"
   xmlns="http://www.w3.org/2000/svg"
   xmlns:sodipodi="http://sodipodi.sourceforge.net/DTD/sodipodi-0.dtd"
   xmlns:inkscape="http://www.inkscape.org/namespaces/inkscape"
   width="303.06503"
   height="175.74324"
   viewBox="0 0 80.185957 46.498735"
   version="1.1"
   id="svg8"
   inkscape:export-filename="/home/arturoe/FSM_hand-drawn.png"
   inkscape:export-xdpi="89.099998"
   inkscape:export-ydpi="89.099998"
   inkscape:version="0.92.4 (5da689c313, 2019-01-14)"
   sodipodi:docname="FSM_hand-drawn.svg">
  <defs
     id="defs2" />
  <sodipodi:namedview
     id="base"
     pagecolor="#ffffff"
     bordercolor="#666666"
     borderopacity="1.0"
     inkscape:pageopacity="0.0"
     inkscape:pageshadow="2"
     inkscape:zoom="1.4"
     inkscape:cx="164.43631"
     inkscape:cy="86.699415"
     inkscape:document-units="mm"
     inkscape:current-layer="layer3"
     showgrid="false"
     fit-margin-top="20"
     units="px"
     fit-margin-left="20"
     fit-margin-bottom="20"
     fit-margin-right="20"
     inkscape:window-width="1920"
     inkscape:window-height="1043"
     inkscape:window-x="0"
     inkscape:window-y="0"
     inkscape:window-maximized="1" />
  <metadata
     id="metadata5">
    <rdf:RDF>
      <cc:Work
         rdf:about="">
        <dc:format>image/svg+xml</dc:format>
        <dc:type
           rdf:resource="http://purl.org/dc/dcmitype/StillImage" />
        <dc:title></dc:title>
      </cc:Work>
    </rdf:RDF>
  </metadata>
  <g
     inkscape:groupmode="layer"
     id="layer3"
     inkscape:label="Capa 3">
    <rect
       style="opacity:0.75499998;fill:#ffffff;fill-opacity:1;stroke:none;stroke-width:0.26458333;stroke-linecap:butt;stroke-linejoin:bevel;stroke-miterlimit:4;stroke-dasharray:none;stroke-dashoffset:0;stroke-opacity:1;paint-order:fill markers stroke"
       id="rect1071"
       width="80.130951"
       height="46.680061"
       x="0"
       y="0.0076608667" />
  </g>
  <g
     inkscape:groupmode="layer"
     id="layer2"
     inkscape:label="Capa 2"
     style="display:inline"
     transform="translate(-48.665441,-114.96088)">
    <path
       style="fill:none;stroke:#000000;stroke-width:0.26458332px;stroke-linecap:butt;stroke-linejoin:miter;stroke-opacity:1"
       d="m 70.681547,139.7619 c -0.125991,-0.0315 -0.251983,-0.063 -0.377975,-0.0945 -0.063,-0.0315 -0.122172,-0.0722 -0.18899,-0.0945 -0.02988,-0.01 -0.06632,0.0141 -0.09449,0 -0.03984,-0.0199 -0.05224,-0.0804 -0.0945,-0.0945 -0.05976,-0.0199 -0.129222,0.0199 -0.188986,0 -0.04226,-0.0141 -0.05465,-0.0746 -0.09449,-0.0945 -0.05634,-0.0282 -0.129225,0.0199 -0.188989,0 -0.133636,-0.0445 -0.247187,-0.13668 -0.377976,-0.18899 -0.184962,-0.074 -0.38386,-0.11052 -0.566965,-0.18899 -0.129474,-0.0555 -0.242533,-0.15029 -0.377976,-0.18899 -0.09086,-0.0259 -0.190822,0.0185 -0.283482,0 -0.06906,-0.0138 -0.122171,-0.0722 -0.188987,-0.0945 -0.123205,-0.0411 -0.250629,-0.069 -0.377978,-0.0945 -0.03088,-0.006 -0.06632,0.0141 -0.09449,0 -0.03984,-0.0199 -0.05465,-0.0746 -0.09449,-0.0945 -0.05939,-0.0297 -0.318584,0.0297 -0.377975,0 -0.03984,-0.0199 -0.05465,-0.0746 -0.0945,-0.0945 -0.02817,-0.0141 -0.06632,0.0141 -0.09449,0 -0.03984,-0.0199 -0.05465,-0.0746 -0.09449,-0.0945 -0.02817,-0.0141 -0.06632,0.0141 -0.09449,0 -0.07968,-0.0398 -0.109305,-0.14914 -0.188989,-0.18899 -0.02817,-0.0141 -0.06632,0.0141 -0.09449,0 -0.03984,-0.0199 -0.05465,-0.0746 -0.0945,-0.0945 -0.02817,-0.0141 -0.07222,0.0223 -0.09449,0 -0.02228,-0.0223 0.02228,-0.0722 0,-0.0945 -0.02228,-0.0223 -0.06632,0.0141 -0.09449,0 -0.313397,-0.3134 0.08909,0.0445 -0.18899,-0.0945 -0.03984,-0.0199 -0.05465,-0.0746 -0.09449,-0.0945 -0.02817,-0.0141 -0.06632,0.0141 -0.09449,0 -0.03984,-0.0199 -0.05465,-0.0746 -0.0945,-0.0945 -0.02817,-0.0141 -0.07222,0.0223 -0.09449,0 -0.02228,-0.0223 0.02228,-0.0722 0,-0.0945 -0.04455,-0.0445 -0.132644,0.0282 -0.188987,0 -0.03984,-0.0199 -0.05465,-0.0746 -0.0945,-0.0945 -0.02817,-0.0141 -0.06632,0.0141 -0.09449,0 -0.03984,-0.0199 -0.05465,-0.0746 -0.09449,-0.0945 -0.05961,-0.0298 -0.412859,0.0298 -0.472472,0 -0.03984,-0.0199 -0.05223,-0.0804 -0.09449,-0.0945 -0.007,-0.002 -0.546217,-0.0104 -0.566966,0 -0.03984,0.0199 -0.05465,0.0746 -0.09449,0.0945 -0.02817,0.0141 -0.07222,-0.0223 -0.09449,0 -0.02228,0.0223 0.02228,0.0722 0,0.0945 -0.02228,0.0223 -0.07222,-0.0223 -0.0945,0 -0.02228,0.0223 0.02228,0.0722 0,0.0945 -0.02228,0.0223 -0.06632,-0.0141 -0.09449,0 -0.03984,0.0199 -0.063,0.063 -0.09449,0.0945 -0.0315,0.0315 -0.063,0.063 -0.09449,0.0945 -0.04975,0.0497 -0.233016,0.25825 -0.283482,0.28348 -0.02817,0.0141 -0.06632,-0.0141 -0.0945,0 -0.242385,0.12119 0.0534,0.0678 -0.188987,0.18899 -0.05635,0.0282 -0.144444,-0.0445 -0.188989,0 -0.02228,0.0223 0.02228,0.0722 0,0.0945 -0.02228,0.0223 -0.07222,-0.0223 -0.09449,0 -0.04455,0.0445 0.04454,0.14444 0,0.18899 -0.02228,0.0223 -0.07222,-0.0223 -0.09449,0 -0.02228,0.0223 0.01408,0.0663 0,0.0945 -0.313399,0.31339 0.04455,-0.0891 -0.0945,0.18898 -0.01992,0.0399 -0.07457,0.0547 -0.09449,0.0945 -0.02817,0.0563 0.04454,0.14444 0,0.18898 -0.02228,0.0223 -0.07222,-0.0223 -0.09449,0 -0.02228,0.0223 0,0.063 0,0.0945 0,0.0315 0,0.063 0,0.0945 0,0.37798 0,0.75596 0,1.13393 0,0.18899 0,0.37798 0,0.56697 0,0.0315 0.02228,0.0722 0,0.0945 -0.02228,0.0223 -0.07222,-0.0223 -0.09449,0 -0.04454,0.0445 0.04454,0.14444 0,0.18899 -0.02228,0.0223 -0.07222,-0.0223 -0.0945,0 -0.02228,0.0223 0.02228,0.0722 0,0.0945 -0.02228,0.0223 -0.07222,-0.0223 -0.09449,0 -0.02228,0.0223 0.02228,0.0722 0,0.0945 -0.02228,0.0223 -0.07222,-0.0223 -0.09449,0 -0.02228,0.0223 0.02228,0.0722 0,0.0945 -0.04454,0.0445 -0.144444,-0.0445 -0.188989,0 -0.02228,0.0223 0.02228,0.0722 0,0.0945 -0.02228,0.0223 -0.09449,0.0315 -0.09449,0 0,-0.0315 0.125992,0 0.09449,0 -0.063,0 -0.129225,-0.0199 -0.188987,0 -0.04226,0.0141 -0.05224,0.0804 -0.0945,0.0945 -0.05976,0.0199 -0.125992,0 -0.188986,0 -0.123048,0 -0.472266,-0.019 -0.566965,0 -0.06907,0.0138 -0.120658,0.0774 -0.18899,0.0945 -0.09167,0.0229 -0.188986,0 -0.28348,0 -0.188989,0 -0.377978,0 -0.566965,0 -0.0315,0 -0.063,0 -0.09449,0 -0.0315,0 -0.07222,0.0223 -0.0945,0 -0.02228,-0.0223 0.02817,-0.0804 0,-0.0945 -0.05635,-0.0282 -0.127873,0.0153 -0.188986,0 -0.06833,-0.0171 -0.122172,-0.0722 -0.18899,-0.0945 -0.02988,-0.01 -0.06632,0.0141 -0.09449,0 -0.03984,-0.0199 -0.05465,-0.0746 -0.09449,-0.0945 -0.05635,-0.0282 -0.132644,0.0282 -0.188989,0 -0.03984,-0.0199 -0.05223,-0.0804 -0.09449,-0.0945 -5.29e-4,-1.5e-4 -0.283392,9e-5 -0.283482,0 -0.02228,-0.0223 0.02228,-0.0722 0,-0.0945 -0.04454,-0.0445 -0.129225,0.0199 -0.188989,0 -0.06682,-0.0223 -0.122169,-0.0722 -0.188987,-0.0945 -0.02988,-0.01 -0.07222,0.0223 -0.0945,0 -0.02228,-0.0223 0.02228,-0.0722 0,-0.0945 -0.04725,-0.0472 -0.236233,0.0473 -0.28348,0 -0.02228,-0.0223 0.02228,-0.0722 0,-0.0945 -0.02228,-0.0223 -0.06632,0.0141 -0.0945,0 -0.03984,-0.0199 -0.05465,-0.0746 -0.09449,-0.0945 -0.02817,-0.0141 -0.07222,0.0223 -0.09449,0 -0.02228,-0.0223 0.02228,-0.0722 0,-0.0945 -0.04455,-0.0445 -0.144444,0.0446 -0.18899,0 -0.02228,-0.0223 0.02228,-0.0722 0,-0.0945 -0.02228,-0.0223 -0.07222,0.0223 -0.09449,0 -0.02228,-0.0223 0.02228,-0.0722 0,-0.0945 -0.02228,-0.0223 -0.07222,0.0223 -0.09449,0 -0.02228,-0.0223 0.02228,-0.0722 0,-0.0945 -0.02228,-0.0223 -0.06632,0.0141 -0.0945,0 -0.07969,-0.0398 -0.109302,-0.14915 -0.188987,-0.18899 -0.02817,-0.0141 -0.07222,0.0223 -0.0945,0 -0.02228,-0.0223 0.02228,-0.0722 0,-0.0945 -0.04725,-0.0472 -0.236233,0.0472 -0.283479,0 -0.02228,-0.0223 0.02228,-0.0722 0,-0.0945 -0.04455,-0.0445 -0.132644,0.0282 -0.18899,0 -0.03984,-0.0199 -0.05465,-0.0746 -0.09449,-0.0945 -0.05635,-0.0282 -0.132644,0.0282 -0.188989,0 -0.03984,-0.0199 -0.05465,-0.0746 -0.09449,-0.0945 -0.04997,-0.025 -0.33194,0.0115 -0.377975,0 -0.06833,-0.0171 -0.122172,-0.0722 -0.18899,-0.0945 -0.08386,-0.0279 -0.410593,0.0309 -0.472469,0 -0.03984,-0.0199 -0.063,-0.063 -0.0945,-0.0945"
       id="path1023"
       inkscape:connector-curvature="0" />
    <path
       style="fill:none;stroke:#000000;stroke-width:0.26458332px;stroke-linecap:butt;stroke-linejoin:miter;stroke-opacity:1"
       d="m 71.626488,143.25818 c -0.15749,0 -0.314981,0 -0.472471,0 -0.0315,0 -0.06632,-0.0141 -0.09449,0 -0.03984,0.0199 -0.05465,0.0746 -0.09449,0.0945 -0.02817,0.0141 -0.06632,-0.0141 -0.0945,0 -0.03984,0.0199 -0.05465,0.0746 -0.09449,0.0945 -0.05738,0.0287 -0.509585,-0.0287 -0.566965,0 -0.233532,0.11677 0.03262,0.0945 -0.188987,0.0945 -0.02291,0 -0.280445,-0.003 -0.283482,0 -0.02228,0.0223 0.02228,0.0722 0,0.0945 -0.04455,0.0445 -0.132644,-0.0282 -0.18899,0 -0.03984,0.0199 -0.05465,0.0746 -0.09449,0.0945 -0.05635,0.0282 -0.144444,-0.0445 -0.188989,0 -0.02228,0.0223 0.02228,0.0722 0,0.0945 -0.02228,0.0223 -0.07222,-0.0223 -0.09449,0 -0.02228,0.0223 0.02228,0.0722 0,0.0945 -0.02228,0.0223 -0.06632,-0.0141 -0.09449,0 -0.09298,0.0465 -0.28499,0.33149 -0.377975,0.37798 -0.130342,0.0652 -0.08452,-0.11444 -0.18899,0.0945 -0.01408,0.0282 0.02228,0.0722 0,0.0945 -0.02228,0.0223 -0.07222,-0.0223 -0.09449,0 -0.02228,0.0223 0.02228,0.0722 0,0.0945 -0.02228,0.0223 -0.07222,-0.0223 -0.09449,0 -0.02228,0.0223 0.02228,0.0722 0,0.0945 -0.02228,0.0223 -0.07222,-0.0223 -0.0945,0 -0.02228,0.0223 0.01408,0.0663 0,0.0945 -0.01992,0.0398 -0.07457,0.0546 -0.09449,0.0945 -0.02869,0.0574 0.02869,0.50959 0,0.56697 -0.01992,0.0398 -0.07457,0.0547 -0.09449,0.0945 -0.01437,0.0288 0,0.24093 0,0.28348 0,0.18899 0,0.37798 0,0.56697 0,0.0347 0.0038,0.37417 0,0.37797 -0.02228,0.0223 -0.07222,-0.0223 -0.0945,0 -0.04725,0.0473 0.04725,0.23624 0,0.28348 -0.02228,0.0223 -0.07222,-0.0223 -0.09449,0 -0.04454,0.0446 0.02817,0.13265 0,0.18899 -0.01992,0.0398 -0.07457,0.0546 -0.09449,0.0945 -0.02817,0.0563 0.04454,0.14444 0,0.18898 -0.02228,0.0223 -0.07222,-0.0223 -0.09449,0 -0.04454,0.0445 0.02817,0.13265 0,0.18899 -0.01992,0.0398 -0.07457,0.0547 -0.0945,0.0945 -0.01408,0.0282 0.02228,0.0722 0,0.0945 -0.02228,0.0223 -0.07222,-0.0223 -0.09449,0 -0.04725,0.0473 0.04725,0.23624 0,0.28348 -0.02228,0.0223 -0.07222,-0.0223 -0.09449,0 -0.04454,0.0445 0.04454,0.14445 0,0.18899 -0.02228,0.0223 -0.07222,-0.0223 -0.0945,0 -0.04454,0.0445 0.02817,0.13264 0,0.18899 -0.01992,0.0398 -0.07457,0.0547 -0.09449,0.0945 -0.01408,0.0282 0.02228,0.0722 0,0.0945 -0.02228,0.0223 -0.07222,-0.0223 -0.09449,0 -0.04454,0.0445 0.02817,0.13264 0,0.18899 -0.03984,0.0797 -0.149145,0.1093 -0.188989,0.18898 -0.01408,0.0282 0.02228,0.0722 0,0.0945 -0.02228,0.0223 -0.07222,-0.0223 -0.09449,0 -0.02228,0.0223 0.02228,0.0722 0,0.0945 -0.02228,0.0223 -0.07222,-0.0223 -0.09449,0 -0.02228,0.0223 0.02228,0.0722 0,0.0945 -0.251984,0 0.0315,-0.0315 -0.0945,0.0945 -0.02228,0.0223 -0.06632,-0.0141 -0.09449,0 -0.03984,0.0199 -0.05465,0.0746 -0.09449,0.0945 -0.02817,0.0141 -0.07222,-0.0223 -0.09449,0 -0.02228,0.0223 0.02228,0.0722 0,0.0945 -0.04455,0.0445 -0.132644,-0.0282 -0.18899,0 -0.432461,0.21623 0.400979,-0.0392 -0.283482,0.18899 -0.02988,0.01 -0.063,0 -0.09449,0 -0.0315,0.0315 -0.05465,0.0746 -0.09449,0.0945 -0.02817,0.0141 -0.06632,-0.0141 -0.0945,0 -0.03984,0.0199 -0.05223,0.0804 -0.09449,0.0945 -0.430165,0 -0.0054,-0.0445 -0.283482,0.0945 -0.05635,0.0282 -0.144444,-0.0445 -0.188987,0 -0.02228,0.0223 0.02228,0.0722 0,0.0945 -0.04454,0.0445 -0.129225,-0.0199 -0.188989,0 -0.535374,0.26769 0.140864,-0.0352 -0.377976,0.0945 -0.06833,0.0171 -0.122171,0.0722 -0.188989,0.0945 -0.06499,0.0217 -0.227727,-0.0279 -0.283483,0 -0.03984,0.0199 -0.05465,0.0746 -0.09449,0.0945 -0.05939,0.0297 -0.318585,-0.0297 -0.377976,0 -0.03984,0.0199 -0.05465,0.0746 -0.09449,0.0945 -0.02873,0.0144 -0.312727,0 -0.377976,0 -0.283482,0 -0.566965,0 -0.850447,0 -0.346478,0 -0.692957,0 -1.039435,0 -0.06573,0 -0.438298,-0.0171 -0.472471,0 -0.03984,0.0199 -0.05465,0.0746 -0.09449,0.0945 -0.02876,0.0144 -0.240924,0 -0.283482,0 -0.283483,0 -0.566963,0 -0.850445,0 -0.04941,0 -0.353131,-0.0124 -0.377976,0 -0.03984,0.0199 -0.05465,0.0746 -0.0945,0.0945 -0.02817,0.0141 -0.06299,0 -0.09449,0 -0.0315,0 -0.07222,0.0223 -0.09449,0 -0.02228,-0.0223 0,-0.063 0,-0.0945"
       id="path1025"
       inkscape:connector-curvature="0" />
    <path
       style="fill:none;stroke:#000000;stroke-width:0.26458332px;stroke-linecap:butt;stroke-linejoin:miter;stroke-opacity:1"
       d="m 77.018421,146.58423 c -0.063,0.12599 -0.104471,0.26528 -0.188989,0.37798 -0.01889,0.0252 -0.07222,-0.0223 -0.09449,0 -0.02228,0.0223 0.01408,0.0663 0,0.0945 -0.01992,0.0398 -0.07457,0.0547 -0.09449,0.0945 -0.01408,0.0282 0.01408,0.0663 0,0.0945 -0.01992,0.0398 -0.07457,0.0546 -0.0945,0.0945 -0.02817,0.0563 0.04454,0.14444 0,0.18899 -0.02228,0.0223 -0.07222,-0.0223 -0.09449,0 -0.04725,0.0472 0.04725,0.23623 0,0.28348 -0.02228,0.0223 -0.07222,-0.0223 -0.09449,0 -0.04454,0.0445 0.02817,0.13264 0,0.18899 -0.01992,0.0398 -0.07457,0.0547 -0.0945,0.0945 -0.01873,0.0375 0.01931,0.26417 0,0.28349 -0.02228,0.0223 -0.07222,-0.0223 -0.09449,0 -0.02228,0.0223 0,0.063 0,0.0945 0,0.0657 0.01709,0.4383 0,0.47247 -0.01992,0.0398 -0.07457,0.0547 -0.09449,0.0945 -0.01408,0.0282 0,0.063 0,0.0945 0,0.15749 0,0.31498 0,0.47247 0,0.0315 0,0.063 0,0.0945 0,0.0315 0.01408,0.0663 0,0.0945 -0.01992,0.0398 -0.07457,0.0547 -0.09449,0.0945 -0.0378,0.0756 0.0378,0.20789 0,0.28348 -0.01992,0.0398 -0.07457,0.0547 -0.0945,0.0945 -0.0378,0.0756 0.0378,0.20788 0,0.28348 -0.01992,0.0398 -0.07457,0.0547 -0.09449,0.0945 -0.0378,0.0756 0.0378,0.20789 0,0.28349 -0.01992,0.0398 -0.07457,0.0546 -0.09449,0.0945 -0.02817,0.0563 0.04454,0.14444 0,0.18899 -0.02228,0.0223 -0.07222,-0.0223 -0.0945,0 -0.04454,0.0445 0.04454,0.14444 0,0.18898 -0.02228,0.0223 -0.07222,-0.0223 -0.09449,0 -0.02228,0.0223 0.01408,0.0663 0,0.0945 -0.01992,0.0398 -0.07457,0.0547 -0.09449,0.0945 -0.01408,0.0282 0,0.063 0,0.0945 -0.0315,0.0315 -0.07457,0.0547 -0.09449,0.0945 -0.01408,0.0282 0.02228,0.0722 0,0.0945 -0.02228,0.0223 -0.07222,-0.0223 -0.0945,0 -0.02228,0.0223 0.01408,0.0663 0,0.0945 -0.03984,0.0797 -0.149145,0.1093 -0.188986,0.18899 -0.01408,0.0282 0.01408,0.0663 0,0.0945 -0.01992,0.0398 -0.07457,0.0547 -0.0945,0.0945 -0.01873,0.0375 0.01931,0.26416 0,0.28348 -0.02228,0.0223 -0.07222,-0.0223 -0.09449,0 -0.02228,0.0223 0.01408,0.0663 0,0.0945 -0.01992,0.0398 -0.07457,0.0547 -0.09449,0.0945 -0.01408,0.0282 0.01408,0.0663 0,0.0945 -0.01992,0.0398 -0.07457,0.0547 -0.09449,0.0945 -0.01408,0.0282 0,0.063 0,0.0945 -0.0315,0.0315 -0.07457,0.0546 -0.0945,0.0945 -0.01408,0.0282 0.02228,0.0722 0,0.0945 -0.02228,0.0223 -0.07222,-0.0223 -0.09449,0 -0.04455,0.0445 0.02817,0.13264 0,0.18898 -0.01992,0.0399 -0.07457,0.0547 -0.09449,0.0945 -0.01407,0.0282 0.01408,0.0663 0,0.0945 -0.01992,0.0398 -0.07457,0.0546 -0.0945,0.0945 -0.01408,0.0282 0.01408,0.0663 0,0.0945 -0.01992,0.0398 -0.07457,0.0547 -0.09449,0.0945 -0.01408,0.0282 0.02228,0.0722 0,0.0945 -0.02228,0.0223 -0.07222,-0.0223 -0.09449,0 -0.02228,0.0223 0.01408,0.0663 0,0.0945 -0.01992,0.0398 -0.07457,0.0547 -0.09449,0.0945 -0.01408,0.0282 0.01407,0.0663 0,0.0945 -0.03984,0.0797 -0.149146,0.1093 -0.18899,0.18899 -0.01408,0.0282 0.02228,0.0722 0,0.0945 -0.02228,0.0223 -0.07222,-0.0223 -0.09449,0 -0.02228,0.0223 0.01408,0.0663 0,0.0945 -0.01992,0.0398 -0.063,0.063 -0.0945,0.0945 -0.0315,0.0315 -0.05465,0.0746 -0.09449,0.0945 -0.05635,0.0282 -0.144444,-0.0446 -0.188987,0 -0.02228,0.0223 0.02228,0.0722 0,0.0945 -0.02228,0.0223 -0.06632,-0.0141 -0.0945,0 -0.03984,0.0199 -0.06299,0.063 -0.09449,0.0945 -0.063,0 -0.129225,-0.0199 -0.188989,0 -0.04226,0.0141 -0.05743,0.0698 -0.09449,0.0945 -0.0586,0.0391 -0.122172,0.0722 -0.188987,0.0945 -0.02988,0.01 -0.06461,-0.01 -0.0945,0 -0.06682,0.0223 -0.122169,0.0722 -0.188987,0.0945 -0.02988,0.01 -0.06632,-0.0141 -0.09449,0 -0.03984,0.0199 -0.05465,0.0746 -0.09449,0.0945 -0.07559,0.0378 -0.207886,-0.0378 -0.283482,0 -0.03984,0.0199 -0.05465,0.0746 -0.09449,0.0945 -0.03746,0.0187 -0.264165,-0.0193 -0.283482,0 -0.02228,0.0223 0.02228,0.0722 0,0.0945 -0.01932,0.0193 -0.246015,-0.0187 -0.283483,0 -0.03984,0.0199 -0.05465,0.0746 -0.09449,0.0945 -0.05126,0.0256 -0.352121,-0.0258 -0.377976,0 -0.02228,0.0223 0.02228,0.0722 0,0.0945 -0.02228,0.0223 -0.07222,-0.0223 -0.09449,0 -0.02228,0.0223 0.02228,0.0722 0,0.0945 -0.04454,0.0445 -0.132644,-0.0282 -0.188989,0 -0.233532,0.11677 0.03262,0.0945 -0.188989,0.0945"
       id="path1027"
       inkscape:connector-curvature="0" />
    <path
       style="fill:none;stroke:#000000;stroke-width:0.26458332px;stroke-linecap:butt;stroke-linejoin:miter;stroke-opacity:1"
       d="m 101.72325,146.01374 c 0,0.12599 -0.0247,0.25443 0,0.37797 0.009,0.0437 0.0746,0.0546 0.0945,0.0945 0.0378,0.0756 -0.0378,0.20788 0,0.28348 0.0199,0.0398 0.0746,0.0547 0.0945,0.0945 0.0326,0.0653 -0.0332,0.4393 0,0.47247 0.0223,0.0223 0.0804,-0.0282 0.0945,0 0.0297,0.0594 -0.0297,0.31859 0,0.37798 0.0199,0.0398 0.0746,0.0547 0.0945,0.0945 0.0326,0.0653 -0.0332,0.4393 0,0.47247 0.0223,0.0223 0.0722,-0.0223 0.0945,0 0.0472,0.0473 -0.0472,0.23624 0,0.28349 0.0223,0.0223 0.0722,-0.0223 0.0945,0 0.0445,0.0445 -0.0282,0.13264 0,0.18898 0.0199,0.0399 0.0746,0.0547 0.0945,0.0945 0.0141,0.0282 -0.0141,0.0663 0,0.0945 0.0199,0.0398 0.0746,0.0547 0.0945,0.0945 0.0141,0.0282 -0.0223,0.0722 0,0.0945 0.0223,0.0223 0.0722,-0.0223 0.0945,0 0.0223,0.0223 -0.0223,0.0722 0,0.0945 0.0223,0.0223 0.0722,-0.0223 0.0945,0 0.0223,0.0223 -0.0223,0.0722 0,0.0945 0.0223,0.0223 0.0722,-0.0223 0.0945,0 0.0445,0.0445 -0.0446,0.14444 0,0.18899 0.0223,0.0223 0.0722,-0.0223 0.0945,0 0.0223,0.0223 -0.0223,0.0722 0,0.0945 0.0223,0.0223 0.0722,-0.0223 0.0945,0 0.0223,0.0223 -0.0223,0.0722 0,0.0945 0.0223,0.0223 0.0722,-0.0223 0.0945,0 0.0223,0.0223 -0.0223,0.0722 0,0.0945 0.0223,0.0223 0.0722,-0.0223 0.0945,0 0.0223,0.0223 -0.0223,0.0722 0,0.0945 0.0223,0.0223 0.0722,-0.0223 0.0945,0 0.0445,0.0446 -0.0446,0.14445 0,0.18899 0.0223,0.0223 0.0722,-0.0223 0.0945,0 0.0223,0.0223 -0.0141,0.0663 0,0.0945 0.0199,0.0399 0.0746,0.0547 0.0945,0.0945 0.0141,0.0282 -0.0223,0.0722 0,0.0945 0.0223,0.0223 0.0722,-0.0223 0.0945,0 0.0223,0.0223 -0.0141,0.0663 0,0.0945 0.0199,0.0398 0.0746,0.0547 0.0945,0.0945 0.0282,0.0564 -0.0282,0.13264 0,0.18899 0.0199,0.0398 0.0746,0.0547 0.0945,0.0945 0.0187,0.0375 -0.0193,0.26417 0,0.28349 0.0223,0.0223 0.0722,-0.0223 0.0945,0 0.0473,0.0472 -0.0472,0.23623 0,0.28348 0.0223,0.0223 0.0722,-0.0223 0.0945,0 0.0259,0.0258 -0.0256,0.32671 0,0.37797 0.0199,0.0398 0.0746,0.0547 0.0945,0.0945 0.0141,0.0282 -0.0141,0.0663 0,0.0945 0.0199,0.0398 0.0746,0.0547 0.0945,0.0945 0.0282,0.0563 -0.0446,0.14444 0,0.18898 0.0223,0.0223 0.0722,-0.0223 0.0945,0 0.0445,0.0446 -0.0446,0.14445 0,0.18899 0.0223,0.0223 0.0722,-0.0223 0.0945,0 0.0446,0.0445 -0.0445,0.14445 0,0.18899 0.0223,0.0223 0.0722,-0.0223 0.0945,0 0.0223,0.0223 -0.0141,0.0663 0,0.0945 0.0199,0.0399 0.0746,0.0547 0.0945,0.0945 0.0141,0.0282 -0.0223,0.0722 0,0.0945 0.0446,0.0446 0.14445,-0.0445 0.18899,0 0.19551,0.19551 -0.29877,-0.008 0.0945,0.18899 0.0282,0.0141 0.0663,-0.0141 0.0945,0 0.0797,0.0398 0.1093,0.14915 0.18899,0.18899 0.0282,0.0141 0.0663,-0.0141 0.0945,0 0.0398,0.0199 0.0547,0.0746 0.0945,0.0945 0.0282,0.0141 0.0663,-0.0141 0.0945,0 0.0797,0.0398 0.1093,0.14915 0.18899,0.18899 0.0282,0.0141 0.0663,-0.0141 0.0945,0 0.0398,0.0199 0.0547,0.0746 0.0945,0.0945 0.0282,0.0141 0.063,0 0.0945,0 0.0315,0.0315 0.0546,0.0746 0.0945,0.0945 0.0282,0.0141 0.0663,-0.0141 0.0945,0 0.0797,0.0398 0.1093,0.14914 0.18898,0.18899 0.0282,0.0141 0.0663,-0.0141 0.0945,0 0.0398,0.0199 0.0546,0.0746 0.0945,0.0945 0.0282,0.0141 0.0663,-0.0141 0.0945,0 0.0398,0.0199 0.0546,0.0746 0.0945,0.0945 0.0282,0.0141 0.0663,-0.0141 0.0945,0 0.0398,0.0199 0.0547,0.0746 0.0945,0.0945 0.0756,0.0378 0.20789,-0.0378 0.28348,0 0.0398,0.0199 0.0546,0.0746 0.0945,0.0945 0.0282,0.0141 0.0663,-0.0141 0.0945,0 0.0398,0.0199 0.0546,0.0746 0.0945,0.0945 0.0375,0.0187 0.26417,-0.0193 0.28348,0 0.126,0.12599 -0.15748,0.0945 0.0945,0.0945"
       id="path1029"
       inkscape:connector-curvature="0" />
    <path
       style="fill:none;stroke:#000000;stroke-width:0.26458332px;stroke-linecap:butt;stroke-linejoin:miter;stroke-opacity:1"
       d="m 107.349,142.56806 c 0.22049,0 0.44097,0 0.66146,0 0.063,0 0.12923,-0.0199 0.18899,0 0.0423,0.0141 0.0522,0.0804 0.0945,0.0945 0.0598,0.0199 0.12788,-0.0153 0.18899,0 0.0683,0.0171 0.12599,0.063 0.18899,0.0945 0.063,0.0315 0.12599,0.063 0.18899,0.0945 0.44321,0.2216 -0.11137,-0.0445 0.47247,0.18898 0.0654,0.0262 0.12359,0.0683 0.18898,0.0945 0.0925,0.037 0.19101,0.0575 0.28349,0.0945 0.13078,0.0523 0.25198,0.12599 0.37797,0.18899 0.063,0.0315 0.13039,0.0554 0.18899,0.0945 0.0371,0.0247 0.0522,0.0804 0.0945,0.0945 0.0598,0.0199 0.12923,-0.0199 0.18899,0 0.0423,0.0141 0.0574,0.0698 0.0945,0.0945 0.0586,0.0391 0.13038,0.0554 0.18899,0.0945 0.0741,0.0494 0.1093,0.14914 0.18898,0.18898 0.0282,0.0141 0.063,0 0.0945,0 0.0315,0.0315 0.0546,0.0746 0.0945,0.0945 0.0282,0.0141 0.0722,-0.0223 0.0945,0 0.0223,0.0223 -0.0223,0.0722 0,0.0945 0.0223,0.0223 0.0722,-0.0223 0.0945,0 0.0223,0.0223 -0.0141,0.0663 0,0.0945 0.3134,0.3134 -0.0446,-0.0891 0.0945,0.18899 0.0399,0.0797 0.14915,0.1093 0.18899,0.18898 0.0378,0.0756 -0.0378,0.20789 0,0.28349 0.0199,0.0398 0.0746,0.0547 0.0945,0.0945 0.0298,0.0596 -0.0298,0.41286 0,0.47247 0.0199,0.0398 0.0804,0.0522 0.0945,0.0945 0.0179,0.0538 0,0.38347 0,0.47248 0,0.40947 0,0.81894 0,1.22842 0,0.0445 -0.004,0.46818 0,0.47247 0.0223,0.0223 0.0722,-0.0223 0.0945,0 0.0473,0.0472 -0.0472,0.23623 0,0.28348 0.0223,0.0223 0.0722,-0.0223 0.0945,0 0.0223,0.0223 -0.0141,0.0663 0,0.0945 0.15114,0.30228 0.0379,-0.11329 0.18899,0.18899 0.0141,0.0282 -0.0141,0.0663 0,0.0945 0.19663,0.39326 -0.007,-0.10102 0.18898,0.0945 0.0223,0.0223 -0.0141,0.0663 0,0.0945 0.0199,0.0399 0.063,0.063 0.0945,0.0945 0.0315,0.0315 0.0547,0.0746 0.0945,0.0945 0.0282,0.0141 0.0663,-0.0141 0.0945,0 0.0398,0.0199 0.0546,0.0746 0.0945,0.0945 0.0282,0.0141 0.0663,-0.0141 0.0945,0 0.1134,0.0567 0.17009,0.22678 0.28349,0.28348 0.0282,0.0141 0.0663,-0.0141 0.0945,0 0.0398,0.0199 0.0547,0.0746 0.0945,0.0945 0.0282,0.0141 0.0663,-0.0141 0.0945,0 0.0398,0.0199 0.0546,0.0746 0.0945,0.0945 0.0563,0.0282 0.13265,-0.0282 0.18899,0 0.0398,0.0199 0.0547,0.0746 0.0945,0.0945 0.0596,0.0298 0.41285,-0.0298 0.47246,0 0.0399,0.0199 0.0547,0.0746 0.0945,0.0945 0.0288,0.0144 0.24092,0 0.28348,0 0.25198,0 0.50397,0 0.75595,0 0.78745,0 1.5749,0 2.36236,0 0.22048,0 0.44097,0 0.66145,0 0.0315,0 0.0722,-0.0223 0.0945,0 0.0223,0.0223 -0.0223,0.0722 0,0.0945 0.0193,0.0193 0.24601,-0.0187 0.28348,0 0.0398,0.0199 0.0546,0.0746 0.0945,0.0945 0.0756,0.0378 0.20789,-0.0378 0.28349,0 0.39326,0.19663 -0.10102,-0.007 0.0945,0.18899 0.0445,0.0445 0.13264,-0.0282 0.18899,0 0.0398,0.0199 0.0547,0.0746 0.0945,0.0945 0.0282,0.0141 0.0722,-0.0223 0.0945,0 0.0223,0.0223 -0.0223,0.0722 0,0.0945 0.0223,0.0223 0.0663,-0.0141 0.0945,0 0.0398,0.0199 0.0546,0.0746 0.0945,0.0945 0.0563,0.0282 0.14445,-0.0445 0.18899,0 0.0223,0.0223 0,0.063 0,0.0945 0.0315,0 0.0722,-0.0223 0.0945,0 0.0445,0.0445 -0.0446,0.14444 0,0.18898 0.0223,0.0223 0.0722,-0.0223 0.0945,0 0.0223,0.0223 -0.0223,0.0722 0,0.0945 0.0223,0.0223 0.0722,-0.0223 0.0945,0 0.0472,0.0472 -0.0473,0.23623 0,0.28348 0.0223,0.0223 0.063,0 0.0945,0"
       id="path1031"
       inkscape:connector-curvature="0" />
    <path
       style="fill:none;stroke:#000000;stroke-width:0.26458332px;stroke-linecap:butt;stroke-linejoin:miter;stroke-opacity:1"
       d="m 108.2042,140.00625 c 0.12599,-0.12599 0.25198,-0.25199 0.37797,-0.37798 0.0315,0 0.0663,0.0141 0.0945,0 0.0398,-0.0199 0.0547,-0.0746 0.0945,-0.0945 0.0563,-0.0282 0.14445,0.0445 0.18899,0 0.0223,-0.0223 -0.0223,-0.0722 0,-0.0945 0.0223,-0.0223 0.0639,0.008 0.0945,0 0.18976,0.0217 0.30792,-0.14784 0.47248,-0.18898 0.0611,-0.0153 0.12787,0.0153 0.18898,0 0.0683,-0.0171 0.12066,-0.0774 0.18899,-0.0945 0.0611,-0.0153 0.13264,0.0282 0.18899,0 0.0282,-0.0141 -0.0223,-0.0722 0,-0.0945 0.0445,-0.0446 0.12922,0.0199 0.18899,0 0.0668,-0.0223 0.12217,-0.0722 0.18899,-0.0945 0.0299,-0.01 0.0646,0.01 0.0945,0 0.0668,-0.0223 0.12217,-0.0722 0.18899,-0.0945 0.0896,-0.0299 0.19181,0.0229 0.28348,0 0.0683,-0.0171 0.12217,-0.0722 0.18899,-0.0945 0.10041,-0.0335 0.27756,0.0335 0.37797,0 0.0423,-0.0141 0.0522,-0.0804 0.0945,-0.0945 0.0598,-0.0199 0.12599,0 0.18899,0 0.0315,0 0.0663,0.0141 0.0945,0 0.0398,-0.0199 0.0546,-0.0746 0.0945,-0.0945 0.0594,-0.0297 0.31859,0.0297 0.37798,0 0.0398,-0.0199 0.0547,-0.0746 0.0945,-0.0945 0.0756,-0.0378 0.20789,0.0378 0.28349,0 0.0398,-0.0199 0.0546,-0.0746 0.0945,-0.0945 0.0513,-0.0256 0.35212,0.0258 0.37798,0 0.0223,-0.0223 -0.0223,-0.0722 0,-0.0945 0.0631,-0.0631 0.12588,0.0631 0.18899,0 0.0223,-0.0223 -0.0282,-0.0804 0,-0.0945 0.0563,-0.0282 0.12599,0 0.18898,0 0.0315,0 0.0722,0.0223 0.0945,0 0.0223,-0.0223 -0.0262,-0.077 0,-0.0945 0.0829,-0.0553 0.19439,-0.0499 0.28348,-0.0945 0.0398,-0.0199 0.0546,-0.0746 0.0945,-0.0945 0.0564,-0.0282 0.14444,0.0445 0.18899,0 0.0223,-0.0223 -0.0223,-0.0722 0,-0.0945 0.0223,-0.0223 0.063,0 0.0945,0 0.0315,0 0.063,0 0.0945,0 0.18899,0 0.37798,0 0.56696,0 0.0945,0 0.19384,0.0299 0.28348,0 0.0423,-0.0141 0.0547,-0.0746 0.0945,-0.0945 0.0248,-0.0124 0.32856,0 0.37798,0 0.0315,0 0.0722,-0.0223 0.0945,0 0.0223,0.0223 -0.0223,0.0722 0,0.0945 0.0445,0.0445 0.13264,-0.0282 0.18899,0 0.0398,0.0199 0.0547,0.0746 0.0945,0.0945 0.0282,0.0141 0.0722,-0.0223 0.0945,0 0.0223,0.0223 -0.0223,0.0722 0,0.0945 0.0223,0.0223 0.0722,-0.0223 0.0945,0 0.0223,0.0223 -0.0223,0.0722 0,0.0945 0.19551,0.19551 -0.008,-0.29877 0.18899,0.0945 0.0141,0.0282 -0.0223,0.0722 0,0.0945 0.0223,0.0223 0.0722,-0.0223 0.0945,0 0.0223,0.0223 -0.0141,0.0663 0,0.0945 0.0199,0.0398 0.0746,0.0547 0.0945,0.0945 0.0141,0.0282 -0.0223,0.0722 0,0.0945 0.0223,0.0223 0.0722,-0.0223 0.0945,0 0.0446,0.0445 -0.0282,0.13264 0,0.18899 0.0199,0.0398 0.0746,0.0546 0.0945,0.0945 0.0141,0.0282 -0.0141,0.0663 0,0.0945 0.0399,0.0797 0.14915,0.10931 0.18899,0.18899 0.0141,0.0282 -0.0141,0.0663 0,0.0945 0.0199,0.0398 0.0746,0.0547 0.0945,0.0945 0.0282,0.0564 -0.0282,0.13264 0,0.18899 0.0199,0.0398 0.0746,0.0547 0.0945,0.0945 0.0141,0.0282 -0.0141,0.0663 0,0.0945 0.0199,0.0398 0.0746,0.0546 0.0945,0.0945 0.0141,0.0282 -0.0223,0.0722 0,0.0945 0.0223,0.0223 0.0722,-0.0223 0.0945,0 0.0223,0.0223 -0.0141,0.0663 0,0.0945 0.0199,0.0398 0.0746,0.0546 0.0945,0.0945 0.0141,0.0282 -0.0141,0.0663 0,0.0945 0.0199,0.0398 0.0746,0.0547 0.0945,0.0945 0.0141,0.0282 -0.0223,0.0722 0,0.0945 0.0223,0.0223 0.0722,-0.0223 0.0945,0 0.36879,0.36879 -0.0219,0.0507 0.0945,0.28349 0.0199,0.0398 0.0746,0.0546 0.0945,0.0945 0.0141,0.0282 -0.0223,0.0722 0,0.0945 0.0223,0.0223 0.0804,-0.0282 0.0945,0 0.0282,0.0563 -0.0282,0.13264 0,0.18898 0.0141,0.0282 0.0722,-0.0223 0.0945,0 0.0223,0.0223 -0.0141,0.0663 0,0.0945 0.19663,0.39326 -0.007,-0.10102 0.18899,0.0945 0.0223,0.0223 -0.0223,0.0722 0,0.0945 0.0445,0.0445 0.13264,-0.0282 0.18898,0 0.0399,0.0199 0.0547,0.0746 0.0945,0.0945 0.0282,0.0141 0.063,0 0.0945,0 0.0315,0 0.063,0 0.0945,0 0.0494,0 0.35312,0.0124 0.37797,0 0.0398,-0.0199 0.0546,-0.0746 0.0945,-0.0945 0.0563,-0.0282 0.14444,0.0445 0.18898,0 0.0223,-0.0223 0,-0.063 0,-0.0945 0.0315,0 0.0663,0.0141 0.0945,0 0.0398,-0.0199 0.0547,-0.0746 0.0945,-0.0945 0.0282,-0.0141 0.0722,0.0223 0.0945,0 0.0223,-0.0223 -0.0223,-0.0722 0,-0.0945 0.0445,-0.0445 0.14444,0.0446 0.18899,0 0.0223,-0.0223 -0.0223,-0.0722 0,-0.0945 0.0445,-0.0446 0.13264,0.0282 0.18898,0 0.0399,-0.0199 0.0546,-0.0746 0.0945,-0.0945 0.0563,-0.0282 0.14444,0.0445 0.18898,0 0.0223,-0.0223 -0.0223,-0.0722 0,-0.0945 0.0446,-0.0445 0.13265,0.0282 0.18899,0 0.0398,-0.0199 0.0546,-0.0746 0.0945,-0.0945 0.0282,-0.0141 0.0663,0.0141 0.0945,0 0.0398,-0.0199 0.0547,-0.0746 0.0945,-0.0945 0.0375,-0.0187 0.26417,0.0193 0.28349,0 0.0223,-0.0223 -0.0223,-0.0722 0,-0.0945 0.0258,-0.0258 0.32671,0.0256 0.37797,0 0.0399,-0.0199 0.0547,-0.0746 0.0945,-0.0945 0.0563,-0.0282 0.14444,0.0445 0.18898,0 0.0223,-0.0223 -0.0223,-0.0722 0,-0.0945 0.0472,-0.0472 0.23624,0.0472 0.28349,0 0.0223,-0.0223 -0.0223,-0.0722 0,-0.0945 0.0445,-0.0445 0.13264,0.0282 0.18899,0 0.0398,-0.0199 0.0547,-0.0746 0.0945,-0.0945 0.0563,-0.0282 0.14444,0.0445 0.18899,0 0.0223,-0.0223 -0.0223,-0.0722 0,-0.0945 0.0445,-0.0446 0.13264,0.0282 0.18899,0 0.0398,-0.0199 0.0547,-0.0746 0.0945,-0.0945 0.0282,-0.0141 0.0722,0.0223 0.0945,0 0.0223,-0.0223 -0.0223,-0.0722 0,-0.0945 0.0223,-0.0223 0.063,0 0.0945,0 0.0229,0 0.28044,0.003 0.28348,0 0.0223,-0.0223 0,-0.063 0,-0.0945"
       id="path1033"
       inkscape:connector-curvature="0" />
    <path
       style="fill:none;stroke:#000000;stroke-width:0.26458332px;stroke-linecap:butt;stroke-linejoin:miter;stroke-opacity:1"
       d="m 84.950148,131.72991 c -0.063,-0.12599 -0.136673,-0.24719 -0.188989,-0.37798 -0.02339,-0.0585 0,-0.12599 0,-0.18899 0,-0.15749 0,-0.31498 0,-0.47246 0,-0.0494 -0.01244,-0.35314 0,-0.37798 0.01992,-0.0398 0.07457,-0.0547 0.0945,-0.0945 0.01873,-0.0375 -0.01931,-0.26416 0,-0.28348 0.02228,-0.0223 0.07222,0.0223 0.09449,0 0.04454,-0.0445 -0.04454,-0.14444 0,-0.18899 0.02228,-0.0223 0.07222,0.0223 0.09449,0 0.02228,-0.0223 -0.01408,-0.0663 0,-0.0945 0.01992,-0.0398 0.07457,-0.0546 0.09449,-0.0945 0.02817,-0.0563 -0.04454,-0.14445 0,-0.18899 0.02228,-0.0223 0.07222,0.0223 0.0945,0 0.02228,-0.0223 -0.02228,-0.0722 0,-0.0945 0.02228,-0.0223 0.07222,0.0223 0.09449,0 0.04454,-0.0445 -0.04454,-0.14444 0,-0.18898 0.02228,-0.0223 0.07222,0.0223 0.09449,0 0.02228,-0.0223 -0.01408,-0.0663 0,-0.0945 0.01992,-0.0398 0.07457,-0.0546 0.0945,-0.0945 0.01408,-0.0282 -0.02228,-0.0722 0,-0.0945 0.02228,-0.0223 0.07222,0.0223 0.09449,0 0.02228,-0.0223 -0.02228,-0.0722 0,-0.0945 0.02228,-0.0223 0.07222,0.0223 0.09449,0 0.02228,-0.0223 -0.02228,-0.0722 0,-0.0945 0.02228,-0.0223 0.07222,0.0223 0.09449,0 0.02228,-0.0223 -0.01408,-0.0663 0,-0.0945 0.01992,-0.0398 0.07457,-0.0547 0.0945,-0.0945 0.02817,-0.0564 -0.04454,-0.14445 0,-0.18899 0.02228,-0.0223 0.07222,0.0223 0.09449,0 0.04454,-0.0446 -0.02817,-0.13264 0,-0.18899 0.01992,-0.0398 0.07457,-0.0546 0.09449,-0.0945 0.01408,-0.0282 -0.02228,-0.0722 0,-0.0945 0.02228,-0.0223 0.063,0 0.0945,0 0,-0.0315 -0.02228,-0.0722 0,-0.0945 0.04454,-0.0446 0.144442,0.0445 0.188987,0 0.04454,-0.0446 -0.02817,-0.13264 0,-0.18899 0.01992,-0.0398 0.07457,-0.0546 0.09449,-0.0945 0.01408,-0.0282 -0.02228,-0.0722 0,-0.0945 0.02228,-0.0223 0.07222,0.0223 0.0945,0 0.02228,-0.0223 -0.01408,-0.0663 0,-0.0945 0.01992,-0.0398 0.07457,-0.0547 0.09449,-0.0945 0.01407,-0.0282 -0.02228,-0.0722 0,-0.0945 0.02228,-0.0223 0.07222,0.0223 0.09449,0 0.02228,-0.0223 -0.02228,-0.0722 0,-0.0945 0.02228,-0.0223 0.07222,0.0223 0.0945,0 0.04454,-0.0446 -0.02817,-0.13265 0,-0.18899 0.01992,-0.0398 0.07457,-0.0546 0.09449,-0.0945 0.01873,-0.0375 -0.01931,-0.26417 0,-0.28349 0.02228,-0.0223 0.07222,0.0223 0.09449,0 0.04725,-0.0472 -0.04725,-0.23623 0,-0.28348 0.02228,-0.0223 0.07222,0.0223 0.09449,0 0.01931,-0.0193 -0.01873,-0.24602 0,-0.28348 0.01992,-0.0398 0.07458,-0.0546 0.0945,-0.0945 0.02564,-0.0513 -0.02585,-0.35212 0,-0.37797 0.02228,-0.0223 0.07222,0.0223 0.09449,0 0.02926,-0.0293 -0.02926,-0.44321 0,-0.47247 0.02228,-0.0223 0.07222,0.0223 0.09449,0 0.04725,-0.0472 -0.04725,-0.23624 0,-0.28349 0.02228,-0.0223 0.07222,0.0223 0.0945,0 0.01932,-0.0193 -0.01873,-0.24601 0,-0.28348 0.01992,-0.0398 0.07457,-0.0546 0.09449,-0.0945 0.01222,-0.0244 0,-0.49999 0,-0.56697 0,-0.34647 0,-0.69295 0,-1.03943 0,-0.0315 0,-0.063 0,-0.0945 0,-0.0315 0.02228,-0.0722 0,-0.0945 -0.02228,-0.0223 -0.07222,0.0223 -0.09449,0 -0.02228,-0.0223 0.02228,-0.0722 0,-0.0945 -0.195514,-0.19551 0.0076,0.29876 -0.188989,-0.0945 -0.01408,-0.0282 0.01408,-0.0663 0,-0.0945 -0.03984,-0.0797 -0.149146,-0.1093 -0.188989,-0.18899 -0.01408,-0.0282 0.02228,-0.0722 0,-0.0945 -0.02228,-0.0223 -0.07222,0.0223 -0.09449,0 -0.02228,-0.0223 0.02228,-0.0722 0,-0.0945 -0.02228,-0.0223 -0.07222,0.0223 -0.09449,0 -0.02228,-0.0223 0.02228,-0.0722 0,-0.0945 -0.02228,-0.0223 -0.07222,0.0223 -0.09449,0 -0.02228,-0.0223 0.01408,-0.0663 0,-0.0945 -0.0567,-0.1134 -0.226788,-0.17009 -0.283483,-0.28349 -0.01408,-0.0282 0.02228,-0.0722 0,-0.0945 -0.02228,-0.0223 -0.07222,0.0223 -0.0945,0 -0.02228,-0.0223 0.02228,-0.0722 0,-0.0945 -0.02228,-0.0223 -0.07222,0.0223 -0.09449,0 -0.02228,-0.0223 0.02228,-0.0722 0,-0.0945 -0.02228,-0.0223 -0.07222,0.0223 -0.09449,0 0,-0.25198 0.0315,0.0315 -0.09449,-0.0945 -0.02228,-0.0223 0.02228,-0.0722 0,-0.0945 -0.04454,-0.0445 -0.132643,0.0282 -0.188989,0 -0.03984,-0.0199 -0.05465,-0.0746 -0.09449,-0.0945 -0.02817,-0.0141 -0.06632,0.0141 -0.0945,0 -0.03984,-0.0199 -0.05465,-0.0746 -0.09449,-0.0945 -0.02817,-0.0141 -0.063,0 -0.09449,0 -0.0315,-0.0315 -0.05465,-0.0746 -0.09449,-0.0945 -0.05635,-0.0282 -0.132643,0.0282 -0.188989,0 -0.03984,-0.0199 -0.05465,-0.0746 -0.09449,-0.0945 -0.05961,-0.0298 -0.412859,0.0298 -0.472472,0 -0.03984,-0.0199 -0.05465,-0.0746 -0.09449,-0.0945 -0.02485,-0.0124 -0.328563,0 -0.377976,0 -0.251984,0 -0.503968,0 -0.755952,0 -0.314981,0 -0.629962,0 -0.944941,0 -0.04941,0 -0.353131,-0.0124 -0.377975,0 -0.03984,0.0199 -0.05465,0.0746 -0.0945,0.0945 -0.02817,0.0141 -0.06632,-0.0141 -0.09449,0 -0.03984,0.0199 -0.05465,0.0746 -0.09449,0.0945 -0.02817,0.0141 -0.07222,-0.0223 -0.0945,0 -0.02228,0.0223 0.02228,0.0722 0,0.0945 -0.02228,0.0223 -0.07222,-0.0223 -0.09449,0 -0.02228,0.0223 0.02228,0.0722 0,0.0945 -0.02228,0.0223 -0.06632,-0.0141 -0.09449,0 -0.07968,0.0398 -0.109304,0.14915 -0.188989,0.18899 -0.02817,0.0141 -0.06299,0 -0.09449,0 -0.0315,0.0315 -0.05465,0.0746 -0.09449,0.0945 -0.02817,0.0141 -0.07222,-0.0223 -0.0945,0 -0.02228,0.0223 0.02228,0.0722 0,0.0945 -0.02228,0.0223 -0.063,0 -0.09449,0 0,0.0315 0.01408,0.0663 0,0.0945 -0.104465,0.20893 -0.05865,0.0293 -0.188986,0.0945 -0.393264,0.19663 0.101015,-0.007 -0.0945,0.18899 -0.02228,0.0223 -0.06632,-0.0141 -0.09449,0 -0.393261,0.19663 0.101018,-0.007 -0.09449,0.18899 -0.02228,0.0223 -0.07222,-0.0223 -0.0945,0 -0.02228,0.0223 0.02228,0.0722 0,0.0945 -0.02228,0.0223 -0.07222,-0.0223 -0.09449,0 -0.02228,0.0223 0.02228,0.0722 0,0.0945 -0.02228,0.0223 -0.07222,-0.0223 -0.09449,0 -0.02228,0.0223 0.01408,0.0663 0,0.0945 -0.01992,0.0398 -0.07457,0.0546 -0.09449,0.0945 -0.01408,0.0282 0,0.063 0,0.0945 -0.0315,0.0315 -0.07457,0.0547 -0.0945,0.0945 -0.01408,0.0282 0.02228,0.0722 0,0.0945 -0.02228,0.0223 -0.07222,-0.0223 -0.09449,0 -0.0038,0.004 0,0.34327 0,0.37798 0,0.15748 0,0.31497 0,0.47246 0,0.0315 -0.02228,0.0722 0,0.0945 0.02228,0.0223 0.07222,-0.0223 0.09449,0 0.02228,0.0223 -0.01408,0.0663 0,0.0945 0.01992,0.0398 0.07457,0.0547 0.0945,0.0945 0.01407,0.0282 -0.02228,0.0722 0,0.0945 0.02228,0.0223 0.07222,-0.0223 0.09449,0 0.04454,0.0446 -0.04454,0.14444 0,0.18899 0.02228,0.0223 0.07222,-0.0223 0.09449,0 0.02228,0.0223 -0.01408,0.0663 0,0.0945 0.03984,0.0797 0.149146,0.10931 0.188989,0.18899 0.05033,0.10066 -0.05033,0.0883 0,0.18899 0.01992,0.0398 0.07457,0.0546 0.09449,0.0945 0.01407,0.0282 -0.01408,0.0663 0,0.0945 0.01992,0.0398 0.07457,0.0547 0.09449,0.0945 0.01408,0.0282 -0.02228,0.0722 0,0.0945 0.02228,0.0223 0.07222,-0.0223 0.0945,0 0.02228,0.0223 -0.01408,0.0663 0,0.0945 0.01992,0.0398 0.07457,0.0546 0.09449,0.0945 0.02817,0.0563 -0.04454,0.14445 0,0.18899 0.02228,0.0223 0.07222,-0.0223 0.09449,0 0.02228,0.0223 -0.02228,0.0722 0,0.0945 0.02228,0.0223 0.07222,-0.0223 0.09449,0 0.02228,0.0223 -0.01408,0.0663 0,0.0945 0.01992,0.0398 0.07458,0.0547 0.0945,0.0945 0.01408,0.0282 -0.02228,0.0722 0,0.0945 0.02228,0.0223 0.07222,-0.0223 0.09449,0 0.02228,0.0223 -0.01408,0.0663 0,0.0945 0.01992,0.0398 0.07457,0.0546 0.09449,0.0945 0.02817,0.0563 -0.02817,0.13264 0,0.18898 0.03984,0.0797 0.149146,0.10931 0.188989,0.18899 0.01408,0.0282 -0.02228,0.0722 0,0.0945 0.02228,0.0223 0.07222,-0.0223 0.09449,0 0.04454,0.0445 -0.04454,0.14444 0,0.18898 0.02228,0.0223 0.07222,-0.0223 0.09449,0 0.02228,0.0223 -0.02228,0.0722 0,0.0945 0.02228,0.0223 0.07222,-0.0223 0.0945,0 0.02228,0.0223 -0.01408,0.0663 0,0.0945 0.01992,0.0398 0.07457,0.0547 0.09449,0.0945 0.01408,0.0282 -0.02228,0.0722 0,0.0945 0.02228,0.0223 0.07222,-0.0223 0.09449,0 0.04454,0.0445 -0.04455,0.14444 0,0.18899 0.02228,0.0223 0.07222,-0.0223 0.0945,0 0.02228,0.0223 -0.02228,0.0722 0,0.0945 0.02228,0.0223 0.06299,0 0.09449,0 0,0.0315 -0.02228,0.0722 0,0.0945 0.02228,0.0223 0.07222,-0.0223 0.09449,0 0.02228,0.0223 -0.02228,0.0722 0,0.0945 0.02228,0.0223 0.07222,-0.0223 0.09449,0 0.02228,0.0223 -0.01408,0.0663 0,0.0945 0.01992,0.0398 0.07458,0.0547 0.0945,0.0945 0.02817,0.0563 -0.04454,0.14444 0,0.18899 0.02228,0.0223 0.06632,-0.0141 0.09449,0 0.07968,0.0398 0.109304,0.14914 0.188989,0.18898 0.02817,0.0141 0.07222,-0.0223 0.09449,0 0.02228,0.0223 -0.02228,0.0722 0,0.0945 0.02228,0.0223 0.07222,-0.0223 0.09449,0 0,0.25198 -0.0315,-0.0315 0.09449,0.0945 0.02228,0.0223 -0.02228,0.0722 0,0.0945 0.195514,0.19551 -0.0076,-0.29877 0.188989,0.0945 0.01408,0.0282 -0.02228,0.0722 0,0.0945 0.02228,0.0223 0.06632,-0.0141 0.09449,0 0.03984,0.0199 0.05465,0.0746 0.0945,0.0945 0.02817,0.0141 0.06632,-0.0141 0.09449,0 0.03984,0.0199 0.063,0.063 0.09449,0.0945 0.0315,0.0315 0.07457,0.0546 0.09449,0.0945 0.01408,0.0282 -0.02228,0.0722 0,0.0945 0.02228,0.0223 0.07222,-0.0223 0.0945,0 0.02228,0.0223 -0.02228,0.0722 0,0.0945 0.02228,0.0223 0.07222,-0.0223 0.09449,0 0.04725,0.0472 -0.04725,0.23624 0,0.28349 0.02228,0.0223 0.07222,-0.0223 0.09449,0 0.04454,0.0445 -0.02817,0.13264 0,0.18899 0.01992,0.0398 0.07457,0.0547 0.0945,0.0945 0.02564,0.0513 -0.02585,0.35212 0,0.37798 0.02228,0.0223 0.07222,-0.0223 0.09449,0 0.04725,0.0472 -0.04725,0.23623 0,0.28348 0.02228,0.0223 0.07222,-0.0223 0.09449,0 0.04454,0.0445 -0.04454,0.14444 0,0.18899 0.02228,0.0223 0.07222,-0.0223 0.09449,0 0.04455,0.0445 -0.02817,0.13264 0,0.18898 0.01992,0.0399 0.07458,0.0547 0.0945,0.0945 0.01873,0.0375 -0.01931,0.26416 0,0.28348 0.02228,0.0223 0.07222,-0.0223 0.09449,0 0.04454,0.0445 -0.04455,0.14444 0,0.18899 0.02228,0.0223 0.07222,-0.0223 0.09449,0 0.02228,0.0223 0,0.063 0,0.0945 0,0.0315 0,0.063 0,0.0945 0,0.0945 0,0.18898 0,0.28348 0,0.0315 0.0315,0.0945 0,0.0945 -0.0315,0 -0.0315,-0.0945 0,-0.0945 0.04454,0 0.07795,0.0531 0.0945,0.0945 0.04823,0.12058 0.06299,0.25199 0.09449,0.37798 z"
       id="path1035"
       inkscape:connector-curvature="0" />
    <path
       style="fill:none;stroke:#000000;stroke-width:0.26458332px;stroke-linecap:butt;stroke-linejoin:miter;stroke-opacity:1"
       d="m 94.966516,131.8244 c 0,-0.47247 0,-0.94494 0,-1.41741 0,-0.0229 -0.003,-0.28044 0,-0.28348 0.02228,-0.0223 0.07222,0.0223 0.09449,0 0.04454,-0.0445 -0.04454,-0.14444 0,-0.18899 0.02228,-0.0223 0.07222,0.0223 0.0945,0 0.02228,-0.0223 -0.01408,-0.0663 0,-0.0945 0.01992,-0.0398 0.07457,-0.0547 0.09449,-0.0945 0.01408,-0.0282 -0.01408,-0.0663 0,-0.0945 0.01992,-0.0398 0.07457,-0.0546 0.09449,-0.0945 0.01408,-0.0282 -0.02228,-0.0722 0,-0.0945 0.02228,-0.0223 0.07222,0.0223 0.0945,0 0.02228,-0.0223 -0.01408,-0.0663 0,-0.0945 0.01992,-0.0398 0.07457,-0.0547 0.09449,-0.0945 0.01408,-0.0282 -0.02228,-0.0722 0,-0.0945 0.02228,-0.0223 0.07222,0.0223 0.09449,0 0.02228,-0.0223 0,-0.063 0,-0.0945 0.0315,0 0.07222,0.0223 0.09449,0 0.02228,-0.0223 -0.01408,-0.0663 0,-0.0945 0.01992,-0.0398 0.07457,-0.0546 0.0945,-0.0945 0.01408,-0.0282 -0.02228,-0.0722 0,-0.0945 0.02228,-0.0223 0.06632,0.0141 0.09449,0 0.03984,-0.0199 0.05465,-0.0746 0.09449,-0.0945 0.02817,-0.0141 0.07222,0.0223 0.0945,0 0.02228,-0.0223 -0.02228,-0.0722 0,-0.0945 0.02228,-0.0223 0.07222,0.0223 0.09449,0 0.02228,-0.0223 -0.02228,-0.0722 0,-0.0945 0.04454,-0.0445 0.144444,0.0445 0.188986,0 0.02228,-0.0223 -0.02228,-0.0722 0,-0.0945 0.02228,-0.0223 0.07222,0.0223 0.0945,0 0.02228,-0.0223 -0.02228,-0.0722 0,-0.0945 0.02228,-0.0223 0.07222,0.0223 0.09449,0 0.02228,-0.0223 -0.02228,-0.0722 0,-0.0945 0.02228,-0.0223 0.06632,0.0141 0.09449,0 0.03984,-0.0199 0.05465,-0.0746 0.0945,-0.0945 0.02817,-0.0141 0.07222,0.0223 0.09449,0 0.02228,-0.0223 -0.02228,-0.0722 0,-0.0945 0.195511,-0.19551 -0.0076,0.29877 0.188987,-0.0945 0.01408,-0.0282 -0.01408,-0.0663 0,-0.0945 0.01992,-0.0398 0.07458,-0.0546 0.0945,-0.0945 0.01408,-0.0282 -0.02228,-0.0722 0,-0.0945 0.02228,-0.0223 0.07222,0.0223 0.09449,0 0.02228,-0.0223 -0.02228,-0.0722 0,-0.0945 0.02228,-0.0223 0.07222,0.0223 0.09449,0 0.04454,-0.0445 -0.04454,-0.14444 0,-0.18899 0.02228,-0.0223 0.07222,0.0223 0.0945,0 0.02228,-0.0223 -0.02228,-0.0722 0,-0.0945 0.01932,-0.0193 0.246015,0.0187 0.28348,0 0.03984,-0.0199 0.05465,-0.0746 0.0945,-0.0945 0.100843,-0.0504 0.08814,0.0504 0.188986,0 0.03984,-0.0199 0.05465,-0.0746 0.0945,-0.0945 0.05635,-0.0282 0.132641,0.0282 0.188987,0 0.03984,-0.0199 0.05465,-0.0746 0.09449,-0.0945 0.0756,-0.0378 0.207889,0.0378 0.283483,0 0.03984,-0.0199 0.05465,-0.0746 0.0945,-0.0945 0.05126,-0.0256 0.35212,0.0259 0.377975,0 0.02228,-0.0223 -0.02228,-0.0722 0,-0.0945 0.04455,-0.0446 0.144442,0.0445 0.188987,0 0.02228,-0.0223 -0.01408,-0.0663 0,-0.0945 0.01992,-0.0398 0.07457,-0.0547 0.0945,-0.0945 0.01408,-0.0282 -0.02228,-0.0722 0,-0.0945 0.02228,-0.0223 0.07222,0.0223 0.09449,0 0.04455,-0.0446 -0.04454,-0.14445 0,-0.18899 0.02228,-0.0223 0.07222,0.0223 0.09449,0 0.04454,-0.0446 -0.04455,-0.14444 0,-0.18899 0.02228,-0.0223 0.07222,0.0223 0.09449,0 0.04454,-0.0445 -0.04454,-0.14444 0,-0.18899 0.02228,-0.0223 0.07222,0.0223 0.0945,0 0.04454,-0.0445 -0.02817,-0.13264 0,-0.18899 0.01992,-0.0398 0.07457,-0.0546 0.09449,-0.0945 0.01222,-0.0244 0,-0.49999 0,-0.56696 0,-0.25199 0,-0.50397 0,-0.75596 0,-0.0315 0,-0.063 0,-0.0945 0,-0.0315 0.02228,-0.0722 0,-0.0945 -0.02228,-0.0223 -0.07222,0.0223 -0.09449,0 -0.04454,-0.0446 0.02817,-0.13265 0,-0.18899 -0.01992,-0.0398 -0.07457,-0.0547 -0.0945,-0.0945 -0.02817,-0.0563 0.02817,-0.13264 0,-0.18899 -0.01992,-0.0398 -0.07457,-0.0546 -0.09449,-0.0945 -0.02564,-0.0513 0.02585,-0.35212 0,-0.37798 -0.02228,-0.0223 -0.07222,0.0223 -0.09449,0 -0.04454,-0.0445 0.02817,-0.13264 0,-0.18898 -0.01992,-0.0399 -0.07457,-0.0547 -0.09449,-0.0945 -0.01408,-0.0282 0.02228,-0.0722 0,-0.0945 -0.02228,-0.0223 -0.07222,0.0223 -0.0945,0 -0.06295,-0.063 0.06295,-0.12604 0,-0.18899 -0.02228,-0.0223 -0.07222,0.0223 -0.09449,0 -0.04454,-0.0446 0.04454,-0.14444 0,-0.18899 -0.02228,-0.0223 -0.07222,0.0223 -0.09449,0 -0.02228,-0.0223 0.02228,-0.0722 0,-0.0945 -0.02228,-0.0223 -0.07222,0.0223 -0.0945,0 -0.02228,-0.0223 0.02228,-0.0722 0,-0.0945 -0.02228,-0.0223 -0.06632,0.0141 -0.09449,0 -0.07968,-0.0398 -0.109302,-0.14914 -0.188986,-0.18898 -0.02817,-0.0141 -0.07222,0.0223 -0.0945,0 -0.02228,-0.0223 0.02228,-0.0722 0,-0.0945 -0.02228,-0.0223 -0.07222,0.0223 -0.09449,0 -0.02228,-0.0223 0.02228,-0.0722 0,-0.0945 -0.02228,-0.0223 -0.07222,0.0223 -0.09449,0 -0.02228,-0.0223 0.02228,-0.0722 0,-0.0945 -0.02228,-0.0223 -0.07222,0.0223 -0.0945,0 -0.02228,-0.0223 0.02228,-0.0722 0,-0.0945 -0.02228,-0.0223 -0.07222,0.0223 -0.09449,0 -0.02228,-0.0223 0.02228,-0.0722 0,-0.0945 -0.02228,-0.0223 -0.07222,0.0223 -0.09449,0 -0.02228,-0.0223 0.02228,-0.0722 0,-0.0945 -0.02228,-0.0223 -0.07222,0.0223 -0.09449,0 -0.02228,-0.0223 0.02228,-0.0722 0,-0.0945 -0.02228,-0.0223 -0.07222,0.0223 -0.0945,0 -0.02228,-0.0223 0.01408,-0.0663 0,-0.0945 -0.19663,-0.39326 0.0065,0.10102 -0.188986,-0.0945 -0.02228,-0.0223 0.02228,-0.0722 0,-0.0945 -0.02228,-0.0223 -0.07222,0.0223 -0.0945,0 -0.02228,-0.0223 0.02228,-0.0722 0,-0.0945 -0.02228,-0.0223 -0.06632,0.0141 -0.09449,0 -0.08375,-0.0419 -0.197462,-0.22613 -0.283483,-0.28348 -0.0586,-0.0391 -0.130384,-0.0554 -0.188987,-0.0945 -0.07413,-0.0494 -0.109304,-0.14914 -0.188989,-0.18898 -0.02876,-0.0144 -0.240924,0 -0.283482,0 -0.251984,0 -0.503968,0 -0.755952,0 -0.15749,0 -0.314981,0 -0.472469,0 -0.0315,0 -0.063,0 -0.0945,0 -0.0315,0 -0.06632,-0.0141 -0.09449,0 -0.03984,0.0199 -0.05465,0.0746 -0.09449,0.0945 -0.05126,0.0256 -0.352121,-0.0259 -0.377976,0 -0.02228,0.0223 0.02228,0.0722 0,0.0945 -0.04455,0.0446 -0.132644,-0.0282 -0.18899,0 -0.03984,0.0199 -0.05465,0.0746 -0.09449,0.0945 -0.02817,0.0141 -0.06632,-0.0141 -0.0945,0 -0.03984,0.0199 -0.05465,0.0746 -0.09449,0.0945 -0.05635,0.0282 -0.144441,-0.0445 -0.188987,0 -0.02228,0.0223 0.02228,0.0722 0,0.0945 -0.04454,0.0445 -0.144444,-0.0446 -0.188989,0 -0.02228,0.0223 0.02228,0.0722 0,0.0945 -0.04454,0.0446 -0.144444,-0.0445 -0.188989,0 -0.02228,0.0223 0.02228,0.0722 0,0.0945 -0.02228,0.0223 -0.07222,-0.0223 -0.09449,0 -0.02228,0.0223 0.02228,0.0722 0,0.0945 -0.02228,0.0223 -0.06632,-0.0141 -0.09449,0 -0.09298,0.0465 -0.28499,0.33148 -0.377975,0.37798 -0.02817,0.0141 -0.07222,-0.0223 -0.0945,0 -0.195512,0.19551 0.29877,-0.008 -0.09449,0.18898 -0.02817,0.0141 -0.06632,-0.0141 -0.09449,0 -0.05047,0.0252 -0.233736,0.23374 -0.283483,0.28349 -0.0315,0.0315 -0.06299,0.063 -0.09449,0.0945 -0.0315,0.0315 -0.07457,0.0547 -0.0945,0.0945 -0.01408,0.0282 0.02228,0.0722 0,0.0945 -0.02228,0.0223 -0.07222,-0.0223 -0.09449,0 -0.02228,0.0223 0.02228,0.0722 0,0.0945 -0.195511,0.19551 0.0076,-0.29876 -0.188987,0.0945 -0.01408,0.0282 0.01408,0.0663 0,0.0945 -0.313399,0.3134 0.04455,-0.0891 -0.0945,0.18899 -0.01992,0.0398 -0.07457,0.0546 -0.09449,0.0945 -0.0378,0.0756 0.0378,0.20789 0,0.28348 -0.01992,0.0398 -0.07457,0.0547 -0.09449,0.0945 -0.01222,0.0244 0,0.49999 0,0.56696 0,0.0315 -0.02228,0.0722 0,0.0945 0.02228,0.0223 0.07222,-0.0223 0.09449,0 0.04454,0.0445 -0.02817,0.13264 0,0.18899 0.01992,0.0398 0.07457,0.0547 0.09449,0.0945 0.02817,0.0563 -0.04454,0.14444 0,0.18899 0.02228,0.0223 0.07222,-0.0223 0.0945,0 0.02228,0.0223 -0.01408,0.0663 0,0.0945 0.313397,0.3134 -0.04454,-0.0891 0.09449,0.18899 0.01992,0.0398 0.07457,0.0546 0.09449,0.0945 0,0.25199 -0.0315,-0.0315 0.09449,0.0945 0.04455,0.0445 -0.04454,0.14444 0,0.18899 0.02228,0.0223 0.07222,-0.0223 0.0945,0 0.02228,0.0223 -0.01408,0.0663 0,0.0945 0.03984,0.0797 0.149146,0.1093 0.188987,0.18899 0.01408,0.0282 -0.01408,0.0663 0,0.0945 0.03984,0.0797 0.149145,0.1093 0.188989,0.18899 0.01408,0.0282 -0.01408,0.0663 0,0.0945 0.01992,0.0399 0.07457,0.0547 0.09449,0.0945 0.01408,0.0282 0,0.063 0,0.0945 0.0315,0.0315 0.07457,0.0546 0.09449,0.0945 0.01408,0.0282 -0.02228,0.0722 0,0.0945 0.02228,0.0223 0.07222,-0.0223 0.0945,0 0.02228,0.0223 -0.01408,0.0663 0,0.0945 0.01992,0.0399 0.07457,0.0547 0.09449,0.0945 0.02817,0.0563 -0.02817,0.13264 0,0.18899 0.01992,0.0398 0.07457,0.0546 0.09449,0.0945 0.01408,0.0282 -0.01408,0.0663 0,0.0945 0.01992,0.0398 0.07457,0.0547 0.0945,0.0945 0.01408,0.0282 -0.02228,0.0722 0,0.0945 0.02228,0.0223 0.07222,-0.0223 0.09449,0 0.02228,0.0223 -0.01407,0.0663 0,0.0945 0.01992,0.0398 0.07457,0.0546 0.09449,0.0945 0.01407,0.0282 -0.01408,0.0663 0,0.0945 0.01992,0.0398 0.07457,0.0547 0.09449,0.0945 0.02817,0.0563 -0.02817,0.13264 0,0.18899 0.01992,0.0398 0.07457,0.0546 0.0945,0.0945 0.01408,0.0282 -0.02228,0.0722 0,0.0945 0.02228,0.0223 0.07222,-0.0223 0.09449,0 0.04454,0.0446 -0.04454,0.14445 0,0.18899 0.02228,0.0223 0.07222,-0.0223 0.09449,0 0.04455,0.0446 -0.02817,0.13265 0,0.18899 0.01992,0.0398 0.07457,0.0547 0.0945,0.0945 0.02817,0.0563 -0.04454,0.14444 0,0.18898 0.02228,0.0223 0.07222,-0.0223 0.09449,0 0.01931,0.0193 -0.01873,0.24602 0,0.28348 0.01992,0.0399 0.07457,0.0547 0.09449,0.0945 0.0378,0.0756 -0.0378,0.20789 0,0.28348 0.01992,0.0398 0.07457,0.0547 0.09449,0.0945 0.0297,0.0594 -0.02969,0.31858 0,0.37797 0.01992,0.0398 0.07458,0.0546 0.0945,0.0945 0.02564,0.0513 -0.02585,0.35212 0,0.37797 0.02228,0.0223 0.07222,-0.0223 0.09449,0 0.02273,0.0227 -0.02273,0.35524 0,0.37798 0.02228,0.0223 0.07222,-0.0223 0.09449,0 0.02585,0.0258 -0.02564,0.32671 0,0.37798 0.01992,0.0398 0.07457,0.0546 0.0945,0.0945 0.01709,0.0342 0,0.40675 0,0.47247 0,0.0315 -0.02228,0.0722 0,0.0945 0.02228,0.0223 0.07222,-0.0223 0.09449,0 0.02228,0.0223 0.0315,0.0945 0,0.0945 -0.0315,0 -0.0076,-0.12506 0,-0.0945 0.03895,0.15582 0.063,0.31498 0.09449,0.47247 z"
       id="path1037"
       inkscape:connector-curvature="0" />
    <path
       style="fill:none;stroke:#000000;stroke-width:0.26458332px;stroke-linecap:butt;stroke-linejoin:miter;stroke-opacity:1"
       d="m 96.100446,124.17039 c -0.323588,-0.0987 -0.292078,0.28777 -0.472471,0.37797 -0.02817,0.0141 -0.07222,-0.0223 -0.09449,0 -0.04454,0.0446 0.04455,0.14445 0,0.18899 -0.02228,0.0223 -0.07222,-0.0223 -0.09449,0 -0.02228,0.0223 0,0.063 0,0.0945 0,0.0315 0,0.063 0,0.0945 0,0.0315 -0.02228,0.0722 0,0.0945 0.003,0.003 0.260564,0 0.28348,0 0.0315,0 0.0945,-0.0315 0.0945,0 0,0.0315 -0.0945,0.0315 -0.0945,0 0,-0.0315 0.063,0 0.0945,0 0.0315,0 0.06299,0 0.09449,0 0.0315,0 0.063,0 0.09449,0 0.0315,0 0.06632,0.0141 0.0945,0 0.03984,-0.0199 0.05465,-0.0746 0.09449,-0.0945 0.02817,-0.0141 0.07222,0.0223 0.09449,0 0.02228,-0.0223 -0.02228,-0.0722 0,-0.0945 0.02228,-0.0223 0.06632,0.0141 0.09449,0 0.03984,-0.0199 0.07458,-0.0546 0.0945,-0.0945 0.01408,-0.0282 -0.0315,-0.0945 0,-0.0945 0.0315,0 0,0.126 0,0.0945 0,-0.0945 0,-0.18899 0,-0.28348 0,-0.0315 0,-0.063 0,-0.0945 0,-0.0315 0.02817,-0.0804 0,-0.0945 -0.11616,-0.0581 -0.251984,-0.063 -0.377976,-0.0945 z"
       id="path1039"
       inkscape:connector-curvature="0" />
    <path
       style="fill:none;stroke:#000000;stroke-width:0.26458332px;stroke-linecap:butt;stroke-linejoin:miter;stroke-opacity:1"
       d="m 83.438242,124.07589 c -0.0315,0.12599 -0.06902,0.25063 -0.09449,0.37798 -0.01588,0.0793 0.02652,0.18898 0,0.18898 -0.0315,0 0,-0.12599 0,-0.0945 0,0.063 -0.01992,0.12923 0,0.18899 0.09832,0.29494 0.063,-0.0315 0.188989,0.0945 0.02228,0.0223 -0.02228,0.0722 0,0.0945 0.02228,0.0223 0.07222,-0.0223 0.09449,0 0.02228,0.0223 -0.02228,0.0722 0,0.0945 0.02228,0.0223 0.063,0 0.09449,0 0.0315,0 0.063,0 0.09449,0 0.251987,0 0.50397,0 0.755954,0 0.0347,0 0.374174,0.004 0.377976,0 0.02228,-0.0223 0,-0.063 0,-0.0945 0,-0.0315 0.01408,-0.0663 0,-0.0945 -0.03984,-0.0797 -0.149146,-0.1093 -0.188989,-0.18899 -0.01408,-0.0282 0.02228,-0.0722 0,-0.0945 -0.02228,-0.0223 -0.07222,0.0223 -0.09449,0 -0.04455,-0.0445 0.04454,-0.14444 0,-0.18899 -0.02228,-0.0223 -0.07222,0.0223 -0.09449,0 -0.02228,-0.0223 0.02228,-0.0722 0,-0.0945 -0.02228,-0.0223 -0.07222,0.0223 -0.0945,0 -0.04725,-0.0473 0.04725,-0.23624 0,-0.28348 -0.02228,-0.0223 -0.07222,0.0223 -0.09449,0 -0.02228,-0.0223 0.02228,-0.0722 0,-0.0945 -0.02228,-0.0223 -0.07222,0.0223 -0.09449,0 -0.02228,-0.0223 0.02228,-0.0722 0,-0.0945 -0.0038,-0.004 -0.343276,0 -0.377976,0 -0.0315,0 -0.063,0 -0.0945,0 -0.0315,0 -0.07222,0.0223 -0.09449,0 -0.125992,-0.12599 0.15749,-0.0945 -0.09449,-0.0945 -0.063,0 -0.125991,0 -0.188989,0 -0.0315,0 -0.09449,0.0315 -0.09449,0 0,-0.0315 0.08685,-0.0305 0.09449,0 0.03056,0.12224 0,0.25199 0,0.37798 z"
       id="path1041"
       inkscape:connector-curvature="0" />
    <path
       style="fill:none;stroke:#000000;stroke-width:0.26458332px;stroke-linecap:butt;stroke-linejoin:miter;stroke-opacity:1"
       d="m 70.681545,139.7619 c 0.652933,0.40472 0.490175,-0.33958 0.755954,-0.47247 0.02817,-0.0141 0.07222,0.0223 0.09449,0 0.02228,-0.0223 -0.02228,-0.0722 0,-0.0945 0.02228,-0.0223 0.07222,0.0223 0.0945,0 0.02228,-0.0223 -0.02228,-0.0722 0,-0.0945 0.04454,-0.0445 0.144442,0.0446 0.188987,0 0.02228,-0.0223 -0.02228,-0.0722 0,-0.0945 0.02228,-0.0223 0.07222,0.0223 0.09449,0 0.02228,-0.0223 0,-0.063 0,-0.0945 0.0315,0 0.07222,0.0223 0.0945,0 0.02228,-0.0223 -0.02228,-0.0722 0,-0.0945 0.02228,-0.0223 0.07222,0.0223 0.09449,0 0.02228,-0.0223 -0.02228,-0.0722 0,-0.0945 0.02228,-0.0223 0.07222,0.0223 0.09449,0 0.04454,-0.0445 -0.04455,-0.14445 0,-0.18899 0.02228,-0.0223 0.07222,0.0223 0.0945,0 0.02228,-0.0223 -0.01408,-0.0663 0,-0.0945 0.01992,-0.0398 0.07457,-0.0547 0.09449,-0.0945 0.01408,-0.0282 -0.02228,-0.0722 0,-0.0945 0.02228,-0.0223 0.07222,0.0223 0.09449,0 0.02228,-0.0223 -0.01408,-0.0663 0,-0.0945 0.01992,-0.0398 0.07457,-0.0546 0.09449,-0.0945 0.01408,-0.0282 -0.02228,-0.0722 0,-0.0945 0.02228,-0.0223 0.07222,0.0223 0.09449,0 0.02228,-0.0223 -0.02228,-0.0722 0,-0.0945 0.02228,-0.0223 0.07222,0.0223 0.09449,0 0.04454,-0.0445 -0.02817,-0.13264 0,-0.18899 0.09556,-0.19111 0.219289,-0.0303 0.283482,-0.0945 0.02228,-0.0223 -0.01408,-0.0663 0,-0.0945 0.104466,-0.20894 0.05865,-0.0293 0.188987,-0.0945 0.03984,-0.0199 0.05465,-0.0746 0.0945,-0.0945 0.02817,-0.0141 0.07222,0.0223 0.09449,0 0.02228,-0.0223 -0.02228,-0.0722 0,-0.0945 0.04454,-0.0445 0.144444,0.0446 0.188989,0 0.02228,-0.0223 -0.02228,-0.0722 0,-0.0945 0.02228,-0.0223 0.06632,0.0141 0.09449,0 0.03984,-0.0199 0.05465,-0.0746 0.09449,-0.0945 0.02817,-0.0141 0.063,0 0.09449,0 0.0315,-0.0315 0.05465,-0.0746 0.0945,-0.0945 0.02817,-0.0141 0.07222,0.0223 0.09449,0 0.02228,-0.0223 -0.02228,-0.0722 0,-0.0945 0.02228,-0.0223 0.06632,0.0141 0.09449,0 0.03984,-0.0199 0.05465,-0.0746 0.0945,-0.0945 0.05634,-0.0282 0.144441,0.0445 0.188986,0 0.02228,-0.0223 -0.02228,-0.0722 0,-0.0945 0.01466,-0.0147 0.246714,0.0122 0.283483,0 0.06682,-0.0223 0.122171,-0.0722 0.188989,-0.0945 0.08964,-0.0299 0.19181,0.0229 0.28348,0 0.06833,-0.0171 0.122171,-0.0722 0.188989,-0.0945 0.02988,-0.01 0.06461,0.01 0.09449,0 0.133636,-0.0445 0.244343,-0.14444 0.377976,-0.18899 0.02988,-0.01 0.06632,0.0141 0.0945,0 0.200692,-0.10034 -0.01169,-0.0886 0.188987,-0.18898 0.05635,-0.0282 0.144444,0.0445 0.188989,0 0.02228,-0.0223 -0.02228,-0.0722 0,-0.0945 0.04454,-0.0445 0.129225,0.0199 0.188986,0 0.34257,-0.11419 0.06725,-0.0448 0.283483,-0.18899 0.217271,-0.14484 0.255201,-0.0441 0.472472,-0.18899 0.03706,-0.0247 0.05223,-0.0804 0.09449,-0.0945 0.05976,-0.0199 0.127873,0.0153 0.188989,0 0.06833,-0.0171 0.122169,-0.0722 0.188987,-0.0945 0.02988,-0.01 0.06632,0.0141 0.09449,0 0.03984,-0.0199 0.05465,-0.0746 0.0945,-0.0945 0.02817,-0.0141 0.06632,0.0141 0.09449,0 0.03984,-0.0199 0.05465,-0.0746 0.09449,-0.0945 0.03747,-0.0187 0.264165,0.0193 0.283482,0 0.02228,-0.0223 -0.02228,-0.0722 0,-0.0945 0.04725,-0.0472 0.236236,0.0473 0.283483,0 0.02228,-0.0223 -0.02228,-0.0722 0,-0.0945 0.01931,-0.0193 0.246015,0.0187 0.283482,0 0.03984,-0.0199 0.05465,-0.0746 0.09449,-0.0945 0.05635,-0.0282 0.132644,0.0282 0.18899,0 0.03984,-0.0199 0.05465,-0.0746 0.09449,-0.0945 0.05635,-0.0282 0.132644,0.0282 0.188989,0 0.03984,-0.0199 0.05465,-0.0746 0.09449,-0.0945 0.02817,-0.0141 0.06632,0.0141 0.09449,0 0.03984,-0.0199 0.05465,-0.0746 0.09449,-0.0945 0.02817,-0.0141 0.06461,0.01 0.0945,0 0.06682,-0.0223 0.122171,-0.0722 0.188987,-0.0945 0.05976,-0.0199 0.132643,0.0282 0.188989,0 0.03984,-0.0199 0.05465,-0.0746 0.09449,-0.0945 0.03747,-0.0187 0.264165,0.0193 0.283483,0 0.02228,-0.0223 -0.02228,-0.0722 0,-0.0945 0.02585,-0.0259 0.326715,0.0256 0.377975,0 0.03984,-0.0199 0.05224,-0.0804 0.09449,-0.0945 0.05976,-0.0199 0.125994,0 0.188989,0 0.09449,0 0.19181,0.0229 0.283482,0 0.04322,-0.0108 0.05224,-0.0804 0.09449,-0.0945 0.119528,-0.0398 0.254431,0.0247 0.377976,0 0.09767,-0.0195 0.186851,-0.0703 0.283482,-0.0945 0.06112,-0.0153 0.132644,0.0282 0.188989,0 0.03984,-0.0199 0.05465,-0.0746 0.09449,-0.0945 0.03746,-0.0187 0.264165,0.0193 0.283482,0 0.02228,-0.0223 -0.02228,-0.0722 0,-0.0945 0.01932,-0.0193 0.246015,0.0187 0.283483,0 0.03984,-0.0199 0.05465,-0.0746 0.09449,-0.0945 0.05939,-0.0297 0.318585,0.0297 0.377976,0 0.03984,-0.0199 0.05465,-0.0746 0.09449,-0.0945 0.06009,-0.03 0.394211,0.0261 0.472472,0 0.04226,-0.0141 0.05223,-0.0804 0.09449,-0.0945 0.06838,-0.0228 0.346829,0.0311 0.377976,0 0.02228,-0.0223 -0.02228,-0.0722 0,-0.0945 0.02228,-0.0223 0.063,0 0.0945,0 0.251984,0 0.503968,0 0.755951,0 1.133928,0 2.267858,0 3.401785,0 0.04455,0 0.468188,-0.004 0.472472,0 0.02228,0.0223 -0.02228,0.0722 0,0.0945 0.0038,0.004 0.343273,0 0.377976,0 1.291418,0 2.582836,0 3.874254,0 0.377978,0 0.755954,0 1.13393,0 0.06573,0 0.438298,-0.0171 0.472469,0 0.03984,0.0199 0.05465,0.0746 0.0945,0.0945 0.05575,0.0279 0.218485,-0.0217 0.28348,0 0.133636,0.0445 0.241321,0.15483 0.377978,0.18899 0.06111,0.0153 0.129225,-0.0199 0.188987,0 0.04226,0.0141 0.05465,0.0746 0.09449,0.0945 0.02817,0.0141 0.06632,-0.0141 0.0945,0 0.03984,0.0199 0.05465,0.0746 0.09449,0.0945 0.02817,0.0141 0.06461,-0.01 0.09449,0 0.06682,0.0223 0.122171,0.0722 0.188989,0.0945 0.05976,0.0199 0.129225,-0.0199 0.188987,0 0.06682,0.0223 0.12066,0.0774 0.188989,0.0945 0.06112,0.0153 0.129225,-0.0199 0.188989,0 0.04226,0.0141 0.05465,0.0746 0.09449,0.0945 0.03417,0.0171 0.406747,0 0.472469,0 0.535467,0 1.070933,0 1.6064,0 0.02291,0 0.280442,-0.003 0.283482,0 0.02228,0.0223 -0.02228,0.0722 0,0.0945 0.02106,0.0211 0.416276,-0.0187 0.472476,0 0.0423,0.0141 0.0546,0.0746 0.0945,0.0945 0.0375,0.0187 0.26416,-0.0193 0.28348,0 0.0223,0.0223 -0.0223,0.0722 0,0.0945 0.0223,0.0223 0.0663,-0.0141 0.0945,0 0.0398,0.0199 0.0547,0.0746 0.0945,0.0945 0.0563,0.0282 0.14445,-0.0445 0.18899,0 0.0223,0.0223 -0.0223,0.0722 0,0.0945 0.0223,0.0223 0.0722,-0.0223 0.0945,0 0.0223,0.0223 -0.0223,0.0722 0,0.0945 0.0446,0.0445 0.13658,-0.035 0.18899,0 0.0741,0.0494 0.1126,0.14315 0.18899,0.18898 0.0854,0.0513 0.19439,0.0499 0.28348,0.0945 0.0399,0.0199 0.0546,0.0746 0.0945,0.0945 0.17818,0.0891 0.38878,0.0999 0.56696,0.18899 0.0398,0.0199 0.0522,0.0804 0.0945,0.0945 0.0598,0.0199 0.13265,-0.0282 0.18899,0 0.0282,0.0141 -0.0223,0.0722 0,0.0945 0.0445,0.0445 0.14445,-0.0445 0.18899,0 0.0223,0.0223 -0.0223,0.0722 0,0.0945 0.0337,0.23213 0.20061,0.0393 0.28348,0.0945 0.43017,0.43016 -0.0391,0.0499 0.37798,0.18899 0.0423,0.0141 0.0546,0.0746 0.0945,0.0945 0.0564,0.0282 0.14445,-0.0446 0.18899,0 0.0223,0.0223 -0.0223,0.0722 0,0.0945 0.0446,0.0445 0.14444,-0.0445 0.18899,0 0.0223,0.0223 -0.0223,0.0722 0,0.0945 0.0445,0.0445 0.14444,-0.0445 0.18899,0 0.0223,0.0223 -0.0223,0.0722 0,0.0945 0.0445,0.0445 0.14444,-0.0445 0.18899,0 0.0223,0.0223 -0.0223,0.0722 0,0.0945 0.0472,0.0472 0.23623,-0.0472 0.28348,0 0.0223,0.0223 -0.0223,0.0722 0,0.0945 0.0445,0.0445 0.14444,-0.0445 0.18898,0 0.0223,0.0223 -0.0223,0.0722 0,0.0945 0.0223,0.0223 0.0663,-0.0141 0.0945,0 0.0398,0.0199 0.0546,0.0746 0.0945,0.0945 0.0282,0.0141 0.0722,-0.0223 0.0945,0 0.0223,0.0223 -0.0223,0.0722 0,0.0945 0.0445,0.0446 0.14444,-0.0445 0.18899,0 0.0223,0.0223 -0.0223,0.0722 0,0.0945 0.0445,0.0445 0.13264,-0.0282 0.18898,0 0.0797,0.0398 0.10931,0.14914 0.18899,0.18898 0.0282,0.0141 0.0663,-0.0141 0.0945,0 0.0398,0.0199 0.0546,0.0746 0.0945,0.0945 0.0282,0.0141 0.063,0 0.0945,0 0.0315,0.0315 0.0547,0.0746 0.0945,0.0945 0.0563,0.0282 0.14444,-0.0445 0.18899,0 0.0223,0.0223 -0.0223,0.0722 0,0.0945 0.0445,0.0445 0.14444,-0.0445 0.18898,0 0.0223,0.0223 -0.0223,0.0722 0,0.0945 0.0223,0.0223 0.0722,-0.0223 0.0945,0 0.0223,0.0223 -0.0223,0.0722 0,0.0945 0.0445,0.0445 0.14444,-0.0445 0.18899,0 0.0223,0.0223 -0.0223,0.0722 0,0.0945 0.0223,0.0223 0.0722,-0.0223 0.0945,0 0.0223,0.0223 -0.0223,0.0722 0,0.0945 0.0223,0.0223 0.0663,-0.0141 0.0945,0 0.0398,0.0199 0.0546,0.0746 0.0945,0.0945 0.0282,0.0141 0.0722,-0.0223 0.0945,0 0.0223,0.0223 -0.0223,0.0722 0,0.0945 0.0223,0.0223 0.0663,-0.0141 0.0945,0 0.0797,0.0398 0.1093,0.14915 0.18898,0.18899 0.0282,0.0141 0.0722,-0.0223 0.0945,0 0.0223,0.0223 -0.0223,0.0722 0,0.0945 0.0223,0.0223 0.0722,-0.0223 0.0945,0 0.0223,0.0223 -0.0223,0.0722 0,0.0945 0.0223,0.0223 0.0722,-0.0223 0.0945,0 0.0223,0.0223 -0.0223,0.0722 0,0.0945 0.0223,0.0223 0.0722,-0.0223 0.0945,0 0.0223,0.0223 -0.0223,0.0722 0,0.0945 0.0223,0.0223 0.0722,-0.0223 0.0945,0 0,0.25198 -0.0315,-0.0315 0.0945,0.0945 0.0227,0.0227 -0.0227,0.35524 0,0.37797 0.0223,0.0223 0.0722,-0.0223 0.0945,0 0.0223,0.0223 0,0.063 0,0.0945 0,0.0315 0,0.063 0,0.0945 0,0.28348 0,0.56697 0,0.85045 0,0.0229 0.003,0.28044 0,0.28348 -0.0223,0.0223 -0.0722,-0.0223 -0.0945,0 -0.0259,0.0258 0.0256,0.32672 0,0.37798 -0.0199,0.0398 -0.0746,0.0546 -0.0945,0.0945 -0.0282,0.0564 0.0282,0.13264 0,0.18899 -0.0199,0.0398 -0.0746,0.0546 -0.0945,0.0945 -0.0282,0.0564 0.0282,0.13265 0,0.18899 -0.0199,0.0398 -0.0746,0.0546 -0.0945,0.0945 -0.0141,0.0282 0.01,0.0646 0,0.0945 -0.0223,0.0668 -0.0722,0.12217 -0.0945,0.18899 -0.0199,0.0598 0,0.12599 0,0.18899 0,0.12599 0,0.25198 0,0.37797 0,0.0315 0.0223,0.0722 0,0.0945 -0.0223,0.0223 -0.0663,-0.0141 -0.0945,0 -0.39326,0.19663 0.10102,-0.007 -0.0945,0.18899 -0.36878,0.36878 -0.0507,-0.0219 -0.28348,0.0945 -0.0398,0.0199 -0.063,0.063 -0.0945,0.0945 -0.0738,0.0738 -0.20194,0.22913 -0.28348,0.28348 -0.0586,0.0391 -0.13919,0.0447 -0.18899,0.0945 -0.0498,0.0498 -0.0554,0.13038 -0.0945,0.18899 -0.0544,0.0815 -0.20967,0.20967 -0.28348,0.28348 -0.0315,0.0315 -0.0746,0.0547 -0.0945,0.0945 -0.0141,0.0282 0.0223,0.0722 0,0.0945 -0.0223,0.0223 -0.0722,-0.0223 -0.0945,0 -0.0223,0.0223 0.0141,0.0663 0,0.0945 -0.19663,0.39326 0.007,-0.10102 -0.18898,0.0945 -0.0223,0.0223 0.0223,0.0722 0,0.0945 -0.0223,0.0223 -0.0722,-0.0223 -0.0945,0 -0.0223,0.0223 0.0223,0.0722 0,0.0945 -0.0445,0.0445 -0.14444,-0.0445 -0.18899,0 -0.0223,0.0223 0.0282,0.0804 0,0.0945 -0.0563,0.0282 -0.12922,-0.0199 -0.18898,0 -0.0423,0.0141 -0.0547,0.0746 -0.0945,0.0945 -0.0282,0.0141 -0.0646,-0.01 -0.0945,0 -0.0668,0.0223 -0.12217,0.0722 -0.18899,0.0945 -0.0299,0.01 -0.0663,-0.0141 -0.0945,0 -0.0398,0.0199 -0.0546,0.0746 -0.0945,0.0945 -0.0282,0.0141 -0.0663,-0.0141 -0.0945,0 -0.3134,0.3134 0.0891,-0.0445 -0.18899,0.0945 -0.0398,0.0199 -0.0547,0.0746 -0.0945,0.0945 -0.0563,0.0282 -0.13265,-0.0282 -0.18899,0 -0.0398,0.0199 -0.0547,0.0746 -0.0945,0.0945 -0.0563,0.0282 -0.13264,-0.0282 -0.18898,0 -0.0399,0.0199 -0.0547,0.0746 -0.0945,0.0945 -0.0563,0.0282 -0.13264,-0.0282 -0.18899,0 -0.0398,0.0199 -0.0522,0.0804 -0.0945,0.0945 -0.0598,0.0199 -0.12922,-0.0199 -0.18899,0 -0.0423,0.0141 -0.0574,0.0698 -0.0945,0.0945 -0.0586,0.0391 -0.13039,0.0554 -0.18899,0.0945 -0.0371,0.0247 -0.0546,0.0746 -0.0945,0.0945 -0.0282,0.0141 -0.0663,-0.0141 -0.0945,0 -0.0398,0.0199 -0.0546,0.0746 -0.0945,0.0945 -0.0282,0.0141 -0.0663,-0.0141 -0.0945,0 -0.0398,0.0199 -0.0547,0.0746 -0.0945,0.0945 -0.0375,0.0187 -0.26417,-0.0193 -0.28348,0 -0.0223,0.0223 0.0282,0.0804 0,0.0945 -0.0563,0.0282 -0.13265,-0.0282 -0.18899,0 -0.0282,0.0141 0.0223,0.0722 0,0.0945 -0.36879,0.36878 -0.0507,-0.0219 -0.28348,0.0945 -0.0399,0.0199 -0.0574,0.0698 -0.0945,0.0945 -0.0586,0.0391 -0.12217,0.0722 -0.18899,0.0945 -0.0299,0.01 -0.0722,-0.0223 -0.0945,0 -0.0223,0.0223 0.0223,0.0722 0,0.0945 -0.0446,0.0446 -0.13264,-0.0282 -0.18899,0 -0.0398,0.0199 -0.0547,0.0746 -0.0945,0.0945 -0.0282,0.0141 -0.0663,-0.0141 -0.0945,0 -0.0398,0.0199 -0.0546,0.0746 -0.0945,0.0945 -0.0564,0.0282 -0.14444,-0.0445 -0.18899,0 -0.0223,0.0223 0.0223,0.0722 0,0.0945 -0.0445,0.0445 -0.13264,-0.0282 -0.18899,0 -0.0398,0.0199 -0.0546,0.0746 -0.0945,0.0945 -0.0282,0.0141 -0.0663,-0.0141 -0.0945,0 -0.0399,0.0199 -0.0547,0.0746 -0.0945,0.0945 -0.0282,0.0141 -0.063,0 -0.0945,0 -0.0315,0.0315 -0.0547,0.0746 -0.0945,0.0945 -0.0282,0.0141 -0.0663,-0.0141 -0.0945,0 -0.0398,0.0199 -0.0547,0.0746 -0.0945,0.0945 -0.0282,0.0141 -0.0663,-0.0141 -0.0945,0 -0.03984,0.0199 -0.05465,0.0746 -0.09449,0.0945 -0.02817,0.0141 -0.06632,-0.0141 -0.09449,0 -0.03984,0.0199 -0.05465,0.0746 -0.0945,0.0945 -0.02817,0.0141 -0.07222,-0.0223 -0.09449,0 -0.02228,0.0223 0.02228,0.0722 0,0.0945 -0.02228,0.0223 -0.06632,-0.0141 -0.09449,0 -0.313396,0.3134 0.08909,-0.0445 -0.188989,0.0945 -0.03984,0.0199 -0.05465,0.0746 -0.09449,0.0945 -0.02817,0.0141 -0.06632,-0.0141 -0.09449,0 -0.03984,0.0199 -0.05465,0.0746 -0.0945,0.0945 -0.02817,0.0141 -0.07222,-0.0223 -0.09449,0 -0.02228,0.0223 0.02228,0.0722 0,0.0945 -0.04454,0.0445 -0.144441,-0.0445 -0.188986,0 -0.02228,0.0223 0.02228,0.0722 0,0.0945 -0.04455,0.0445 -0.144444,-0.0445 -0.18899,0 -0.02228,0.0223 0.02228,0.0722 0,0.0945 -0.04454,0.0445 -0.132643,-0.0282 -0.188989,0 -0.03984,0.0199 -0.05465,0.0746 -0.09449,0.0945 -0.05635,0.0282 -0.132641,-0.0282 -0.188987,0 -0.03984,0.0199 -0.05465,0.0746 -0.0945,0.0945 -0.05939,0.0297 -0.318584,-0.0297 -0.377975,0 -0.03984,0.0199 -0.05465,0.0746 -0.09449,0.0945 -0.02817,0.0141 -0.06632,-0.0141 -0.09449,0 -0.03984,0.0199 -0.05224,0.0804 -0.0945,0.0945 -0.117356,0.0391 -0.348226,-0.0311 -0.472469,0 -0.06833,0.0171 -0.122171,0.0722 -0.188989,0.0945 -0.02988,0.01 -0.06394,-0.008 -0.09449,0 -0.09663,0.0241 -0.185811,0.075 -0.283482,0.0945 -0.06177,0.0124 -0.125992,0 -0.188987,0 -0.0315,0 -0.06632,-0.0141 -0.0945,0 -0.03984,0.0199 -0.05465,0.0746 -0.09449,0.0945 -0.02876,0.0144 -0.240927,0 -0.283482,0 -0.220486,0 -0.440971,0 -0.661459,0 -0.06299,0 -0.125992,0 -0.188986,0 -0.063,0 -0.132644,-0.0282 -0.18899,0 -0.02817,0.0141 0.02228,0.0722 0,0.0945 -0.02796,0.028 -0.319444,-0.0293 -0.377975,0 -0.03984,0.0199 -0.05223,0.0804 -0.09449,0.0945 -0.05226,0.0174 -0.471805,0 -0.566965,0 -0.0315,0 -0.06632,-0.0141 -0.09449,0 -0.03984,0.0199 -0.05465,0.0746 -0.0945,0.0945 -0.02876,0.0144 -0.240924,0 -0.283482,0 -0.220486,0 -0.440971,0 -0.661459,0 -0.598461,0 -1.196922,0 -1.795385,0 -0.213485,0 0.04226,-0.0141 -0.283483,0.0945 -0.100409,0.0335 -0.277566,-0.0335 -0.377976,0 -0.06682,0.0223 -0.122171,0.0722 -0.188989,0.0945 -0.05931,0.0198 -0.301903,0 -0.377976,0 -0.08517,0 -0.412996,0.0198 -0.472469,0 -0.06682,-0.0223 -0.122171,-0.0722 -0.188989,-0.0945 -0.02988,-0.01 -0.063,0 -0.09449,0 -0.09449,0 -0.18899,0 -0.283483,0 -0.314978,0 -0.62996,0 -0.944941,0 -0.08,0 -0.327176,0.0169 -0.377976,0 -0.04226,-0.0141 -0.05223,-0.0804 -0.09449,-0.0945 -0.141742,-0.0472 -0.330729,0.0473 -0.472472,0 -0.04226,-0.0141 -0.05465,-0.0746 -0.09449,-0.0945 -0.06009,-0.03 -0.394208,0.0261 -0.472469,0 -0.04226,-0.0141 -0.05465,-0.0746 -0.0945,-0.0945 -0.02484,-0.0124 -0.328562,0 -0.377976,0 -0.346477,0 -0.692954,0 -1.039434,0 -0.692957,0 -1.385911,0 -2.078868,0 -0.06698,0 -0.542534,0.0122 -0.566965,0 -0.03984,-0.0199 -0.05465,-0.0746 -0.09449,-0.0945 -0.05939,-0.0297 -0.318584,0.0297 -0.377975,0 -0.101579,-0.0508 -0.178038,-0.14681 -0.283483,-0.18899 -0.11698,-0.0468 -0.255746,0.0306 -0.377976,0 -0.171029,0.057 -0.175744,-0.15308 -0.283482,-0.18899 -0.05976,-0.0199 -0.125992,0 -0.188989,0 -0.0315,0 -0.06632,0.0141 -0.09449,0 -0.03984,-0.0199 -0.05465,-0.0746 -0.09449,-0.0945 -0.02817,-0.0141 -0.06461,0.01 -0.0945,0 -0.06682,-0.0223 -0.120658,-0.0774 -0.188986,-0.0945 -0.06112,-0.0153 -0.129226,0.0199 -0.18899,0 -0.04226,-0.0141 -0.05223,-0.0804 -0.09449,-0.0945 -0.05976,-0.0199 -0.129225,0.0199 -0.188989,0 -0.04226,-0.0141 -0.05465,-0.0746 -0.09449,-0.0945 -0.03746,-0.0187 -0.264162,0.0193 -0.283482,0 -0.02228,-0.0223 0.02228,-0.0722 0,-0.0945 -0.04454,-0.0445 -0.144441,0.0445 -0.188987,0 -0.02228,-0.0223 0.02228,-0.0722 0,-0.0945 -0.04454,-0.0445 -0.132643,0.0282 -0.188989,0 -0.03984,-0.0199 -0.05465,-0.0746 -0.09449,-0.0945 -0.05635,-0.0282 -0.144444,0.0445 -0.188989,0 -0.02228,-0.0223 0.02228,-0.0722 0,-0.0945 -0.368785,-0.36879 -0.05075,0.0219 -0.283483,-0.0945 -0.03984,-0.0199 -0.05465,-0.0746 -0.09449,-0.0945 -0.02817,-0.0141 -0.06632,0.0141 -0.09449,0 -0.03984,-0.0199 -0.05465,-0.0746 -0.09449,-0.0945 -0.02817,-0.0141 -0.06461,0.01 -0.0945,0 -0.06299,-0.0315 -0.125992,-0.063 -0.188986,-0.0945 -0.0315,0 -0.06461,0.01 -0.0945,0 -0.342567,-0.11419 -0.06725,-0.0448 -0.28348,-0.18898 -0.0586,-0.0391 -0.130387,-0.0554 -0.188989,-0.0945 -0.03706,-0.0247 -0.05743,-0.0698 -0.09449,-0.0945 -0.0586,-0.0391 -0.125992,-0.063 -0.188989,-0.0945 -0.06299,-0.0315 -0.122171,-0.0722 -0.188986,-0.0945 -0.02988,-0.01 -0.07222,0.0223 -0.0945,0 -0.02228,-0.0223 0.02228,-0.0722 0,-0.0945 -0.02228,-0.0223 -0.06632,0.0141 -0.09449,0 -0.07968,-0.0398 -0.109304,-0.14914 -0.188989,-0.18898 -0.02817,-0.0141 -0.07222,0.0223 -0.09449,0 -0.02228,-0.0223 0.02228,-0.0722 0,-0.0945 -0.02228,-0.0223 -0.06632,0.0141 -0.09449,0 -0.07969,-0.0398 -0.109305,-0.14914 -0.18899,-0.18899 -0.02817,-0.0141 -0.07222,0.0223 -0.09449,0 -0.02228,-0.0223 0.02228,-0.0722 0,-0.0945 -0.02228,-0.0223 -0.07222,0.0223 -0.09449,0 -0.02228,-0.0223 0.02228,-0.0722 0,-0.0945 -0.04454,-0.0445 -0.132644,0.0282 -0.188989,0 -0.08375,-0.0419 -0.197462,-0.22614 -0.283483,-0.28349 -0.0586,-0.0391 -0.122169,-0.0722 -0.188987,-0.0945 -0.02988,-0.01 -0.07222,0.0223 -0.0945,0 -0.02228,-0.0223 0.02228,-0.0722 0,-0.0945 -0.02228,-0.0223 -0.07222,0.0223 -0.09449,0 -0.02228,-0.0223 0.01408,-0.0663 0,-0.0945 -0.01992,-0.0398 -0.06299,-0.063 -0.09449,-0.0945 -0.0315,-0.0315 -0.063,-0.063 -0.09449,-0.0945 -0.125992,-0.12599 -0.251984,-0.25198 -0.377979,-0.37797 -0.06299,-0.063 -0.135533,-0.11772 -0.188986,-0.18899 -0.04226,-0.0564 -0.04469,-0.13919 -0.09449,-0.18899 -0.02228,-0.0223 -0.07222,0.0223 -0.0945,0 -0.0498,-0.0498 -0.04469,-0.13918 -0.09449,-0.18899 -0.0498,-0.0498 -0.139184,-0.0447 -0.188989,-0.0945 -0.0498,-0.0498 -0.05542,-0.13039 -0.09449,-0.18899 -0.02471,-0.0371 -0.07457,-0.0547 -0.09449,-0.0945 -0.01408,-0.0282 0.02228,-0.0722 0,-0.0945 -0.02228,-0.0223 -0.07222,0.0223 -0.09449,0 -0.04454,-0.0445 0.04454,-0.14444 0,-0.18899 -0.02228,-0.0223 -0.07222,0.0223 -0.0945,0 -0.02228,-0.0223 0.02228,-0.0722 0,-0.0945 -0.02228,-0.0223 -0.07222,0.0223 -0.09449,0 -0.02228,-0.0223 0.01408,-0.0663 0,-0.0945 -0.02524,-0.0505 -0.233736,-0.23374 -0.283483,-0.28348 -0.04975,-0.0498 -0.233013,-0.25825 -0.283482,-0.28349 -0.05635,-0.0282 -0.132641,0.0282 -0.188987,0 -0.07968,-0.0398 -0.109305,-0.14914 -0.188989,-0.18899 -0.02817,-0.0141 -0.06632,0.0141 -0.09449,0 -0.07969,-0.0398 -0.109305,-0.14914 -0.18899,-0.18898 -0.02817,-0.0141 -0.07222,0.0223 -0.09449,0 -0.02228,-0.0223 0.02228,-0.0722 0,-0.0945 -0.02228,-0.0223 -0.06632,0.0141 -0.09449,0 -0.03984,-0.0199 -0.05465,-0.0746 -0.0945,-0.0945 -0.02817,-0.0141 -0.06632,0.0141 -0.09449,0 -0.03984,-0.0199 -0.05465,-0.0746 -0.09449,-0.0945 -0.02817,-0.0141 -0.06632,0.0141 -0.09449,0 -0.03984,-0.0199 -0.05465,-0.0746 -0.0945,-0.0945 -0.02817,-0.0141 -0.07222,0.0223 -0.09449,0 -0.195511,-0.19551 0.298767,0.008 -0.09449,-0.18899 -0.02817,-0.0141 -0.06632,0.0141 -0.09449,0 -0.03984,-0.0199 -0.063,-0.063 -0.09449,-0.0945 -0.07425,-0.0743 -0.412279,-0.44238 -0.472469,-0.47247 -0.02817,-0.0141 -0.06632,0.0141 -0.0945,0 -0.03984,-0.0199 -0.06299,-0.063 -0.09449,-0.0945 -0.0315,-0.0315 -0.07457,-0.0547 -0.09449,-0.0945 -0.01408,-0.0282 0.02228,-0.0722 0,-0.0945 -0.02228,-0.0223 -0.07222,0.0223 -0.09449,0 -0.02228,-0.0223 0.02228,-0.0722 0,-0.0945 -0.02228,-0.0223 -0.07222,0.0223 -0.0945,0 -0.09201,-0.092 0.161994,-0.22949 0.18899,-0.28348 0.01407,-0.0282 -0.02228,-0.0722 0,-0.0945 0.02228,-0.0223 0.07222,0.0223 0.09449,0 0.02228,-0.0223 -0.02228,-0.0722 0,-0.0945 0.02228,-0.0223 0.07222,0.0223 0.09449,0 0.02228,-0.0223 -0.02228,-0.0722 0,-0.0945 0.02228,-0.0223 0.07222,0.0223 0.0945,0 0.02228,-0.0223 -0.02228,-0.0722 0,-0.0945 0.02228,-0.0223 0.07222,0.0223 0.09449,0 0.02228,-0.0223 0,-0.063 0,-0.0945 0.0315,0 0.06632,0.0141 0.09449,0 0.03984,-0.0199 0.05082,-0.10323 0.0945,-0.0945 0.138125,0.0276 0.251984,0.12599 0.377973,0.18899 z"
       id="path1043"
       inkscape:connector-curvature="0" />
    <path
       style="fill:none;stroke:#000000;stroke-width:0.26458332px;stroke-linecap:butt;stroke-linejoin:miter;stroke-opacity:1"
       d="m 84.950148,131.72991 c 0,-0.0118 -0.0118,-0.0354 0,-0.0354 0.0118,0 -0.0042,0.0244 0,0.0354 0.0081,0.0215 0.0227,0.04 0.03544,0.0591 0.0031,0.005 0.0093,0.007 0.0118,0.0118 0.0035,0.007 -0.0056,0.018 0,0.0236 0.0028,0.003 0.009,-0.003 0.0118,0 0.0059,0.006 -0.0059,0.0295 0,0.0354 0.0028,0.003 0.009,-0.003 0.0118,0 0.0028,0.003 -0.0019,0.008 0,0.0118 0.0024,0.005 0.0093,0.007 0.0118,0.0118 0.0035,0.007 -0.0056,0.018 0,0.0236 0.01574,0.0157 0.0118,-0.0197 0.0118,0.0118 0,0.004 0,0.008 0,0.0118 0,0.004 -0.0028,0.009 0,0.0118 0.0028,0.003 0.009,-0.003 0.01183,0 0.0032,0.003 -0.0032,0.0408 0,0.0472 0.0024,0.005 0.0093,0.007 0.0118,0.0118 0.0047,0.009 -0.0047,0.026 0,0.0354 0.0024,0.005 0.0093,0.007 0.0118,0.0118 0.0037,0.007 -0.0037,0.0516 0,0.0591 0.0024,0.005 0.0093,0.007 0.0118,0.0118 0.0036,0.007 -0.0036,0.0637 0,0.0709 0.0024,0.005 0.0093,0.007 0.0118,0.0118 0.0032,0.006 -0.0032,0.044 0,0.0472 0.0028,0.003 0.009,-0.003 0.0118,0 0.0037,0.004 -0.0037,0.0554 0,0.0591 0.0028,0.003 0.009,-0.003 0.0118,0 0.0032,0.003 -0.0032,0.0408 0,0.0473 0.0024,0.005 0.0093,0.007 0.01183,0.0118 0.0037,0.007 -0.0037,0.0398 0,0.0472 0.0024,0.005 0.0093,0.007 0.0118,0.0118 0.0037,0.007 -0.0037,0.0398 0,0.0472 0.0024,0.005 0.0093,0.007 0.0118,0.0118 0.0016,0.003 0,0.0411 0,0.0472 0,0.038 -0.0028,-0.0202 0.0118,0.0236 0.0037,0.0112 0,0.0236 0,0.0354 0,0.0197 0,0.0394 0,0.0591 0,0.008 0,0.0157 0,0.0236 0,0.004 -0.0019,0.008 0,0.0118 0.0024,0.005 0.0093,0.007 0.0118,0.0118 0.0036,0.007 -0.0036,0.0637 0,0.0709 0.0024,0.005 0.01005,0.007 0.0118,0.0118 0.0037,0.0112 0,0.0236 0,0.0354 0,0.0315 0,0.063 0,0.0945 0,0.0827 0,0.16536 0,0.24804 0,0.0236 0,0.0472 0,0.0709 0,0.004 0,0.008 0,0.0118 0,0.004 -0.0019,0.008 0,0.0118 0.0024,0.005 0.0093,0.007 0.0118,0.0118 0.0019,0.004 0,0.008 0,0.0118 0,0.004 0,0.008 0,0.0118 0,0.0197 0,0.0394 0,0.0591 0,0.004 0,0.008 0,0.0118 0,0.004 -0.0028,0.009 0,0.0118 0.0028,0.003 0.009,-0.003 0.01183,0 0.0024,0.002 -0.0021,0.0548 0,0.0591 0.01574,0.0315 0.0118,-0.0354 0.0118,0.0118 0,0.0236 0,0.0472 0,0.0709 0,0.004 0.0028,0.009 0,0.0118 -0.0028,0.003 -0.0079,0 -0.0118,0"
       id="path1045"
       inkscape:connector-curvature="0" />
    <path
       style="fill:none;stroke:#000000;stroke-width:0.26458332px;stroke-linecap:butt;stroke-linejoin:miter;stroke-opacity:1"
       d="m 94.966516,131.57636 c -0.02933,0.0196 -0.0042,0.0481 -0.0118,0.0709 -0.0019,0.005 -0.01005,0.007 -0.0118,0.0118 -0.0035,0.0106 0.0035,0.0248 0,0.0354 -0.0028,0.008 -0.0097,0.0151 -0.0118,0.0236 -0.0019,0.008 0.0024,0.0162 0,0.0236 -0.0019,0.005 -0.0093,0.007 -0.0118,0.0118 -0.0019,0.004 0.0013,0.008 0,0.0118 -0.0028,0.008 -0.009,0.0153 -0.0118,0.0236 -0.0024,0.007 0.0024,0.0162 0,0.0236 -0.0028,0.008 -0.009,0.0153 -0.0118,0.0236 -0.0013,0.004 0.0019,0.008 0,0.0118 -0.0024,0.005 -0.0093,0.007 -0.01183,0.0118 -0.0035,0.007 0.0035,0.0166 0,0.0236 -0.0024,0.005 -0.0093,0.007 -0.0118,0.0118 -0.0024,0.005 0.0024,0.033 0,0.0354 -0.0028,0.003 -0.009,-0.003 -0.0118,0 -0.0028,0.003 0,0.008 0,0.0118 0,0.0236 0,0.0472 0,0.0709 0,0.004 0.0028,0.009 0,0.0118 -0.0028,0.003 -0.009,-0.003 -0.0118,0 -2.65e-4,2.7e-4 0,0.0326 0,0.0354 0,0.0315 0,0.063 0,0.0945 0,0.005 0.0019,0.0318 0,0.0354 -0.0024,0.005 -0.0093,0.007 -0.0118,0.0118 -0.0019,0.004 0,0.0301 0,0.0354 0,0.0236 0,0.0472 0,0.0709 0,0.0551 0,0.11024 0,0.16537 0,0.0236 0,0.0472 0,0.0709 0,0.005 0.0019,0.0318 0,0.0354 -0.0024,0.005 -0.0093,0.007 -0.0118,0.0118 -0.0019,0.004 0,0.008 0,0.0118 0,0.004 0,0.008 0,0.0118 0,0.0236 0,0.0472 0,0.0709 0,0.0709 0,0.14174 0,0.21261 0,0.0827 0,0.16537 0,0.24805 0,0.0236 0,0.0472 0,0.0709 0,0.005 0.0019,0.0318 0,0.0354 -0.0024,0.005 -0.0093,0.007 -0.0118,0.0118 -0.0037,0.007 0.0037,0.0516 0,0.0591 -0.0024,0.005 -0.0093,0.007 -0.01183,0.0118 -0.0019,0.004 0,0.008 0,0.0118 0,0.004 0,0.008 0,0.0118 0,0.0197 0,0.0394 0,0.0591 0,0.008 0.0016,0.0678 0,0.0709 -0.0024,0.005 -0.0093,0.007 -0.0118,0.0118 -0.0019,0.004 0,0.008 0,0.0118 0,0.004 0,0.008 0,0.0118"
       id="path1047"
       inkscape:connector-curvature="0" />
    <path
       style="fill:none;stroke:#000000;stroke-width:0.26458332px;stroke-linecap:butt;stroke-linejoin:miter;stroke-opacity:1"
       d="m 71.626488,143.25818 c -0.01773,0.004 -0.03555,0.007 -0.05315,0.0118 -0.0019,5.2e-4 0.0039,0 0.0059,0 0.004,0 0.02093,0.001 0.02363,0 0.0082,-0.003 0.01482,-0.0118 0.02363,-0.0118 0.01061,0 0.01947,0.008 0.02953,0.0118 0.0037,0.001 0.0079,0 0.0118,0 0.0098,0 0.01968,0 0.02953,0 0.0042,0 0.03391,7.9e-4 0.03543,0 0.0024,-0.001 0.0034,-0.005 0.0059,-0.006 0.0019,-8e-4 0.0039,0 0.0059,0 0.0039,0 0.0079,0 0.0118,0 0.01574,0 0.0315,0 0.04725,0 0.03937,0 0.07874,0 0.118118,0 0.0118,0 0.02363,0 0.03543,0 0.0019,0 0.0045,0.001 0.0059,0 0.0013,-0.001 -0.0013,-0.005 0,-0.006 0.0016,-0.002 0.02043,0.002 0.02363,0 0.0024,-0.001 0.0034,-0.005 0.0059,-0.006 0.0038,-0.002 0.01886,0.002 0.02363,0 0.0042,-0.001 0.0076,-0.005 0.0118,-0.006 0.0041,-0.001 0.01423,0.002 0.01773,0 0.0024,-0.001 0.0034,-0.005 0.0059,-0.006 0.0019,-7.9e-4 0.0039,0 0.0059,0 0.0019,0 0.0039,0 0.0059,0 0.0019,0 0.0039,0 0.0059,0 0.0019,0 0.0042,8e-4 0.0059,0 0.0024,-0.001 0.0034,-0.005 0.0059,-0.006 0.0047,-0.002 0.01299,0.002 0.01773,0 0.0024,-0.001 0.0034,-0.005 0.0059,-0.006 0.0019,0 0.0039,0 0.0059,0 0.0019,0 0.0042,8e-4 0.0059,0 0.0024,-0.001 0.0034,-0.005 0.0059,-0.006 0.0047,-0.002 0.01299,0.002 0.01773,0 0.0024,-0.001 0.0034,-0.005 0.0059,-0.006 0.0019,-7.9e-4 0.0042,8e-4 0.0059,0 0.0024,-0.001 0.0033,-0.005 0.0059,-0.006 0.0037,-0.001 0.0081,0.001 0.0118,0 0.0026,-7.9e-4 0.0034,-0.005 0.0059,-0.006 0.0035,-0.002 0.0083,0.002 0.0118,0 0.0024,-0.001 0.0034,-0.005 0.0059,-0.006 0.0019,-7.9e-4 0.0039,0 0.0059,0 0.0039,0 0.0081,0.001 0.0118,0 0.0026,-7.9e-4 0.0033,-0.005 0.0059,-0.006 0.0037,-0.001 0.0081,0.001 0.0118,0 0.0026,-7.9e-4 0.0034,-0.005 0.0059,-0.006 0.0019,-7.9e-4 0.0042,8e-4 0.0059,0 0.0024,-0.001 0.0034,-0.005 0.0059,-0.006 0.0019,-7.9e-4 0.0042,8e-4 0.0059,0 0.0024,-0.001 0.0034,-0.005 0.0059,-0.006 0.0035,-0.002 0.009,0.003 0.0118,0 0.0013,-0.001 -0.0013,-0.005 0,-0.006 0.0028,-0.003 0.009,0.003 0.01183,0 0.0013,-0.001 -0.0013,-0.005 0,-0.006 0.0013,-0.001 0.0042,8e-4 0.0059,0 0.0024,-0.001 0.0034,-0.005 0.0059,-0.006 0.0019,-7.9e-4 0.0042,8e-4 0.0059,0 0.0071,-0.004 0.01064,-0.0142 0.01773,-0.0177 0.0019,-7.9e-4 0.0042,8e-4 0.0059,0 0.0024,-0.001 0.0034,-0.005 0.0059,-0.006 0.0019,-7.9e-4 0.0042,8e-4 0.0059,0 0.0024,-0.001 0.0034,-0.005 0.0059,-0.006 0.0019,-7.9e-4 0.0045,0.001 0.0059,0 0.0013,-0.001 -7.93e-4,-0.004 0,-0.006 0.01228,-0.0246 -5.29e-4,0.006 0.0118,-0.006 0.0013,-0.001 -0.0013,-0.005 0,-0.006 0.0013,-0.001 0.0045,0.001 0.0059,0 0.0013,-0.001 -7.94e-4,-0.004 0,-0.006 0.01228,-0.0246 -5.29e-4,0.006 0.0118,-0.006 0.0013,-0.001 -0.0013,-0.005 0,-0.006 0.0031,-0.003 0.0083,-0.003 0.0118,-0.006 0.0044,-0.003 0.0079,-0.008 0.0118,-0.0118 0.0059,-0.006 0.0118,-0.0118 0.01773,-0.0177 0.0039,-0.004 0.0074,-0.008 0.0118,-0.0118 0.0035,-0.003 0.0079,-0.004 0.0118,-0.006 0.0059,-0.004 0.01217,-0.007 0.01773,-0.0118 0.0087,-0.007 0.01574,-0.0157 0.02363,-0.0236 0.0019,-0.002 0.0039,-0.004 0.0059,-0.006 0.0019,-0.002 0.0034,-0.005 0.0059,-0.006 0.0019,-7.9e-4 0.0042,7.9e-4 0.0059,0 0.02458,-0.0123 -0.0063,5.3e-4 0.0059,-0.0118 0.0013,-0.001 0.0045,0.001 0.0059,0 0.0013,-0.001 -0.0013,-0.005 0,-0.006 0.0013,-0.001 0.0045,0.001 0.0059,0 0.0013,-0.001 -0.0013,-0.005 0,-0.006 0.0013,-0.001 0.0045,0.001 0.0059,0 0.0013,-0.001 -7.94e-4,-0.004 0,-0.006 0.0013,-0.002 0.0047,-0.003 0.0059,-0.006 7.94e-4,-0.002 -0.0013,-0.005 0,-0.006 0.0013,-0.001 0.0045,0.001 0.0059,0 0.0013,-0.001 -0.0013,-0.005 0,-0.006 0.0013,-0.001 0.0045,0.001 0.0059,0 0.0028,-0.003 -0.0028,-0.009 0,-0.0118 0.0013,-0.001 0.0045,0.001 0.0059,0 0.0013,-0.001 -7.94e-4,-0.004 0,-0.006 0.0024,-0.005 0.0093,-0.007 0.0118,-0.0118 7.94e-4,-0.002 -7.93e-4,-0.004 0,-0.006 0.0024,-0.005 0.0093,-0.007 0.01183,-0.0118 7.94e-4,-0.002 -0.0013,-0.005 0,-0.006 0.0013,-0.001 0.0045,10e-4 0.0059,0 0.0028,-0.003 -0.0028,-0.009 0,-0.0118 0.0013,-10e-4 0.0045,0.001 0.0059,0 0.0013,-10e-4 -7.94e-4,-0.004 0,-0.006 0.0013,-0.002 0.0047,-0.003 0.0059,-0.006 7.94e-4,-0.002 -0.0013,-0.005 0,-0.006 0.0013,-10e-4 0.0045,0.001 0.0059,0 0.0028,-0.003 -0.0028,-0.009 0,-0.0118 0.0013,-0.001 0.0045,0.001 0.0059,0 0.003,-0.003 -0.003,-0.0148 0,-0.0177 0.0013,-0.001 0.0045,0.001 0.0059,0 0.0013,-0.001 -0.0013,-0.005 0,-0.006 0.0079,-0.008 0.0059,0.01 0.0059,-0.006"
       id="path1049"
       inkscape:connector-curvature="0" />
  </g>
</svg>
